<svg width="753" height="903" viewBox="0 0 753 903" fill="none" xmlns="http://www.w3.org/2000/svg">
<mask id="mask0_153_1432" style="mask-type:alpha" maskUnits="userSpaceOnUse" x="0" y="0" width="753" height="903">
<rect width="753" height="902.84" rx="31" fill="#D9D9D9"/>
</mask>
<g mask="url(#mask0_153_1432)">
<rect width="753" height="902.84" rx="31" fill="#04273A"/>
<path d="M164.755 557.698H158.553L176.49 508.849H182.596L200.533 557.698H194.331L179.734 516.577H179.352L164.755 557.698ZM167.045 538.616H192.042V543.864H167.045V538.616Z" fill="#FAAA85"/>
<path d="M674.964 656.347H89.0161C84.2571 656.347 80.3994 653.007 80.3994 648.886C80.3994 644.766 84.2571 641.426 89.0161 641.426H674.964C679.723 641.426 683.581 644.766 683.581 648.886C683.581 653.007 679.723 656.347 674.964 656.347Z" fill="#FA9E73"/>
<path d="M585.295 674.608H377.686C372.927 674.608 369.069 671.268 369.069 667.147C369.069 663.027 372.927 659.686 377.686 659.686H585.295C590.054 659.686 593.912 663.027 593.912 667.147C593.912 671.268 590.054 674.608 585.295 674.608Z" fill="#FA9E73"/>
<path d="M660.279 686.102H489.852C485.094 686.102 481.236 682.762 481.236 678.641C481.236 674.52 485.094 671.18 489.852 671.18H660.279C665.038 671.18 668.896 674.52 668.896 678.641C668.896 682.762 665.038 686.102 660.279 686.102Z" fill="#FA9E73"/>
<path d="M339.495 719.433H169.069C164.31 719.433 160.453 716.093 160.453 711.972C160.453 707.852 164.31 704.511 169.069 704.511H339.496C344.255 704.511 348.113 707.852 348.113 711.972C348.111 716.092 344.254 719.433 339.495 719.433Z" fill="#FA9E73"/>
<path d="M753 0V110.805C741.961 132.027 726.716 161.224 705.812 174.632C654.209 207.734 631.24 199.178 625.532 234.547C619.824 269.917 617.535 261.064 589.012 293.122C560.488 325.166 570.652 441.734 554.041 494.854H222.067C222.067 494.854 184.545 411.803 184.169 336.164C183.943 291.051 121.323 293.312 111.263 239.258C108.583 224.863 97.5135 207.112 71.8211 199.82C39.5174 190.66 15.8582 169.73 0 144.133V0H753Z" fill="#0B3351"/>
<path d="M586.445 116.183C544.612 165.05 585.121 220.91 542.869 253.722C501.873 285.561 496.552 369.432 496.552 369.432C496.552 369.432 314.744 401.67 308.934 350.796C299.867 271.334 238.833 304.311 225.199 227.949C211.565 151.587 192.094 167.087 126.844 119.508C81.0114 86.0667 76.5118 30.2514 77.8901 0H632.157C634.265 34.8191 623.198 73.2473 586.445 116.183Z" fill="#1A3C4F"/>
<path d="M271.018 273.538C268.126 275.878 264.64 277.048 260.586 277.048C257.479 277.048 254.02 276.357 250.25 274.965C211.97 260.902 191.918 192.482 186.013 162.999H187.391C190.202 177.261 195.972 199.128 205.376 220.304C218.172 249.156 233.873 267.676 250.777 273.889C258.911 276.884 265.41 276.474 270.099 272.684C286.408 259.486 279.301 207.236 266.153 162.999H267.545C272.599 180.046 276.612 197.782 278.841 213.401C281.99 235.397 283.192 263.687 271.018 273.538Z" fill="#32376B"/>
<path d="M506.724 217.052C479.47 249.717 482.862 274.263 489.023 318.804C489.374 321.389 489.739 324.034 490.118 326.748C492.279 342.741 488.861 355.576 479.916 364.9C467.147 378.226 447.298 379.548 447.095 379.56L411.342 377.571L411.882 376.752C425.759 355.857 435.123 329.193 437.596 303.594C439.65 282.219 437.826 251.191 417.49 224.762C398.614 200.239 393.128 178.256 392.155 162.999H393.506C394.479 178.068 399.911 199.818 418.611 224.107C439.177 250.817 441.015 282.125 438.934 303.688C436.488 329.123 427.273 355.611 413.598 376.518L447.095 378.39C447.203 378.378 466.485 377.092 478.889 364.152C487.577 355.084 490.901 342.542 488.766 326.888C488.402 324.174 488.037 321.53 487.672 318.944C481.483 274.111 478.065 249.401 505.629 216.361C517.48 202.146 516.993 181.859 512.345 162.999H513.71C518.344 182.07 518.777 202.591 506.724 217.052Z" fill="#32376B"/>
<path d="M243.619 570.699H128.842V607.633H243.619V570.699Z" fill="#FFA661"/>
<path d="M243.616 574.322H128.844V604.145H243.616V574.322Z" fill="white"/>
<path d="M226.307 579.657H128.844V580.827H226.307V579.657Z" fill="#FADED1"/>
<path d="M226.307 585.87H128.844V587.04H226.307V585.87Z" fill="#FADED1"/>
<path d="M226.307 592.094H128.844V593.264H226.307V592.094Z" fill="#FADED1"/>
<path d="M226.307 598.318H128.844V599.488H226.307V598.318Z" fill="#FADED1"/>
<path d="M232.976 649.032H100.202C95.0953 649.032 90.9565 645.448 90.9565 641.028V615.703C90.9565 611.283 95.0953 607.699 100.202 607.699H232.977V649.032H232.976Z" fill="#2B305D"/>
<path d="M102.742 642.012C100.718 642.012 99.0625 640.579 99.0625 638.826V617.901C99.0625 616.15 100.718 614.716 102.74 614.716H224.868V642.011H102.742V642.012Z" stroke="#48509C" stroke-miterlimit="10"/>
<path d="M515.484 242.969C515.985 244.004 516.413 245.042 516.788 246.086C521.237 258.73 516.249 272.274 504.801 280.437C504.474 280.67 504.159 280.898 503.809 281.113L503.797 281.118C501.307 282.783 498.521 284.2 495.479 285.303C483.541 289.635 470.479 288.196 460.433 282.455C460.008 282.215 459.58 281.965 459.171 281.695C453.762 278.33 449.343 273.679 446.58 267.971C444.063 262.771 443.237 257.31 443.897 252.074C443.897 252.074 443.897 252.074 443.891 252.063C445.288 240.723 453.593 230.365 466.602 225.643C467.201 225.425 467.791 225.224 468.393 225.044C468.835 224.896 469.274 224.775 469.713 224.654C469.775 224.632 469.83 224.624 469.893 224.602C470.084 224.544 470.27 224.503 470.467 224.456C471.456 224.199 472.448 223.978 473.449 223.806C473.608 223.773 473.762 223.756 473.922 223.723C474.272 223.66 474.61 223.6 474.97 223.558C475.804 223.433 476.653 223.34 477.494 223.264C478.104 223.221 478.712 223.178 479.32 223.16C479.921 223.132 480.533 223.125 481.151 223.13C481.751 223.127 482.356 223.137 482.959 223.172C484.172 223.227 485.364 223.326 486.556 223.49C487.084 223.552 487.623 223.636 488.149 223.724C488.8 223.831 489.446 223.951 490.076 224.103C490.661 224.221 491.238 224.354 491.812 224.513C492.382 224.661 492.944 224.825 493.512 224.999C494.075 225.163 494.635 225.353 495.183 225.547C495.732 225.741 496.284 225.946 496.832 226.167C500.015 227.447 502.993 229.12 505.659 231.146C505.921 231.356 506.197 231.561 506.464 231.78C506.727 231.99 506.99 232.199 507.244 232.424C508.557 233.533 509.767 234.731 510.886 236.012C511.157 236.333 511.425 236.642 511.672 236.97C511.811 237.135 511.937 237.305 512.08 237.482C512.239 237.69 512.404 237.91 512.552 238.123C512.76 238.403 512.956 238.687 513.157 238.982C513.365 239.261 513.554 239.561 513.738 239.849C513.818 239.984 513.905 240.105 513.981 240.23C514.116 240.448 514.255 240.676 514.365 240.903C514.515 241.153 514.67 241.413 514.814 241.678C515.049 242.1 515.27 242.527 515.484 242.969Z" fill="#C96357"/>
<path d="M515.483 242.969C515.984 244.004 516.413 245.042 516.787 246.086C515.489 256.782 508.03 266.617 496.273 271.658C495.897 271.819 495.534 271.977 495.135 272.121C494.796 272.27 494.448 272.396 494.087 272.527C486.473 275.29 478.41 275.703 470.959 274.145C470.505 274.056 470.065 273.962 469.608 273.836C458.996 271.281 449.791 264.675 445.2 255.19C444.704 254.165 444.27 253.117 443.896 252.074C443.896 252.074 443.896 252.074 443.891 252.063C445.288 240.723 453.592 230.365 466.602 225.643C467.2 225.425 467.791 225.224 468.392 225.044C468.834 224.896 469.273 224.775 469.712 224.654C469.774 224.632 469.83 224.624 469.892 224.602C470.084 224.544 470.269 224.503 470.466 224.456C471.455 224.199 472.447 223.978 473.448 223.806C473.608 223.773 473.762 223.756 473.921 223.723C474.271 223.66 474.609 223.6 474.97 223.558C475.804 223.433 476.652 223.34 477.494 223.264C478.103 223.221 478.711 223.178 479.319 223.16C479.921 223.132 480.533 223.125 481.15 223.13C481.75 223.127 482.356 223.137 482.958 223.172C484.172 223.227 485.363 223.326 486.555 223.49C487.083 223.552 487.623 223.636 488.148 223.724C488.799 223.831 489.445 223.951 490.075 224.103C490.66 224.221 491.237 224.354 491.811 224.513C492.382 224.661 492.944 224.825 493.511 224.999C494.075 225.163 494.634 225.353 495.183 225.547C495.731 225.741 496.284 225.946 496.831 226.167C500.014 227.447 502.993 229.12 505.658 231.146C505.921 231.356 506.196 231.561 506.464 231.78C506.726 231.99 506.989 232.199 507.243 232.424C508.557 233.533 509.766 234.731 510.885 236.012C511.157 236.333 511.424 236.642 511.671 236.97C511.811 237.135 511.936 237.305 512.079 237.482C512.239 237.69 512.404 237.91 512.551 238.123C512.759 238.403 512.955 238.687 513.156 238.982C513.364 239.261 513.554 239.561 513.737 239.849C513.817 239.984 513.905 240.105 513.981 240.23C514.116 240.448 514.255 240.676 514.364 240.903C514.514 241.153 514.67 241.413 514.813 241.678C515.048 242.1 515.27 242.527 515.483 242.969Z" fill="#E16F61"/>
<path d="M477.495 223.264C462.337 234.144 465.883 244.223 469.591 254.789C470.749 258.06 471.94 261.459 472.588 264.915C473.225 268.261 472.671 271.355 470.959 274.145C470.592 274.748 470.172 275.331 469.697 275.896C467.329 278.722 463.941 280.864 460.433 282.455C460.009 282.215 459.581 281.965 459.171 281.695C462.763 280.125 466.256 278.02 468.606 275.214C468.973 274.764 469.311 274.311 469.608 273.836C471.3 271.218 471.859 268.287 471.258 265.106C470.618 261.723 469.435 258.371 468.304 255.128C464.58 244.53 461.009 234.395 474.971 223.558C475.803 223.434 476.653 223.342 477.495 223.264Z" fill="#C96357"/>
<path d="M511.672 236.969C505.44 240.106 499.434 245.254 496.064 253.669C493.04 261.224 493.821 267.105 496.273 271.658C498.347 275.459 501.609 278.322 504.801 280.437C504.474 280.67 504.159 280.898 503.809 281.113L503.797 281.118C499.857 278.425 496.964 275.416 495.135 272.121C492.071 266.636 491.957 260.348 494.78 253.286C498.262 244.588 504.439 239.278 510.887 236.011C511.158 236.332 511.424 236.641 511.672 236.969Z" fill="#C96357"/>
<path d="M512.789 235.537C518.055 233.782 523.358 232.102 528.728 230.567C534.097 229.024 539.503 227.567 545.037 226.353C547.81 225.755 550.614 225.237 553.523 224.88C554.988 224.714 556.46 224.573 558.089 224.613C558.901 224.634 559.761 224.693 560.805 224.977C561.067 225.053 561.33 225.133 561.649 225.294C561.802 225.37 561.942 225.432 562.099 225.529C562.265 225.643 562.427 225.766 562.581 225.894C562.884 226.126 563.185 226.557 563.369 226.934C563.552 227.352 563.612 227.777 563.598 228.15C563.557 228.906 563.299 229.397 563.067 229.822C562.822 230.254 562.56 230.575 562.295 230.896C561.763 231.514 561.214 232.014 560.659 232.489C559.547 233.434 558.405 234.246 557.245 235.024C554.927 236.569 552.546 237.957 550.138 239.293C540.505 244.615 530.412 249.054 520.268 253.38C510.106 257.672 499.81 261.7 489.42 265.534C479.004 269.313 468.476 272.865 457.841 276.181C452.521 277.836 447.172 279.424 441.779 280.92C436.389 282.425 430.949 283.815 425.412 284.988C422.645 285.579 419.854 286.122 417.011 286.563C414.144 286.98 411.323 287.396 408.076 287.277C407.241 287.218 406.395 287.164 405.31 286.806C404.792 286.63 404.107 286.331 403.512 285.684C402.885 285.025 402.702 284.053 402.822 283.375C403.109 282.08 403.729 281.464 404.247 280.858C404.791 280.285 405.348 279.782 405.914 279.335C408.18 277.546 410.543 276.134 412.95 274.77C417.782 272.093 422.751 269.737 427.766 267.464C432.779 265.191 437.863 263.063 442.991 261.023L444.186 263.122C434.303 267.697 424.355 272.291 415.244 277.736C412.988 279.089 410.747 280.511 408.899 282.05C408.434 282.432 408.033 282.825 407.694 283.197C407.356 283.543 407.165 283.981 407.21 283.895C407.265 283.817 407.192 283.491 407.018 283.308C406.863 283.135 406.803 283.167 406.944 283.197C407.176 283.275 407.752 283.348 408.314 283.362C410.701 283.412 413.474 282.999 416.128 282.543C418.81 282.069 421.499 281.49 424.177 280.859C434.881 278.27 445.519 275.205 456.021 271.848C466.533 268.5 476.936 264.878 487.258 261.093C497.603 257.356 507.856 253.425 517.958 249.242C528.047 245.055 538.027 240.616 547.548 235.699C549.91 234.454 552.235 233.162 554.412 231.778C555.494 231.087 556.546 230.366 557.463 229.622C557.918 229.252 558.345 228.871 558.664 228.516C558.986 228.204 559.159 227.752 559.099 227.99C559.076 228.117 559.221 228.509 559.376 228.599C559.399 228.626 559.432 228.646 559.468 228.658C559.484 228.666 559.464 228.664 559.464 228.664C559.484 228.659 559.417 228.638 559.344 228.618C559.051 228.529 558.498 228.439 557.906 228.421C556.723 228.364 555.382 228.451 554.057 228.578C551.385 228.844 548.669 229.307 545.962 229.803C535.099 231.828 524.373 234.776 513.693 237.739L512.789 235.537Z" fill="#1E5177"/>
<path d="M457.453 337.421C454.726 338.442 453.48 339.521 452.302 341.882C452.074 342.339 451.336 342.339 451.109 341.882C449.931 339.521 448.683 338.443 445.957 337.421C445.43 337.225 445.43 336.586 445.957 336.388C448.683 335.368 449.929 334.288 451.109 331.927C451.336 331.471 452.074 331.471 452.302 331.927C453.48 334.288 454.726 335.368 457.453 336.388C457.978 336.585 457.978 337.224 457.453 337.421Z" fill="white"/>
<path d="M150.711 202.115C147.984 203.135 146.737 204.215 145.558 206.576C145.331 207.032 144.594 207.032 144.365 206.576C143.187 204.215 141.94 203.136 139.213 202.115C138.686 201.918 138.686 201.279 139.213 201.082C141.94 200.061 143.187 198.982 144.365 196.621C144.592 196.164 145.33 196.164 145.558 196.621C146.737 198.982 147.984 200.061 150.711 201.082C151.238 201.279 151.238 201.918 150.711 202.115Z" fill="white"/>
<path d="M574.006 196.686C571.28 197.706 570.034 198.786 568.854 201.147C568.627 201.603 567.89 201.603 567.661 201.147C566.483 198.786 565.236 197.706 562.509 196.686C561.982 196.49 561.982 195.851 562.509 195.653C565.236 194.633 566.482 193.553 567.661 191.192C567.888 190.736 568.626 190.736 568.854 191.192C570.033 193.553 571.28 194.633 574.006 195.653C574.533 195.85 574.533 196.488 574.006 196.686Z" fill="white"/>
<path d="M642.738 243.65C640.964 244.314 640.152 245.016 639.386 246.552C639.237 246.85 638.758 246.85 638.61 246.552C637.843 245.016 637.032 244.313 635.258 243.65C634.915 243.521 634.915 243.106 635.258 242.977C637.032 242.314 637.844 241.61 638.61 240.074C638.759 239.777 639.239 239.777 639.386 240.074C640.153 241.61 640.964 242.314 642.738 242.977C643.081 243.106 643.081 243.521 642.738 243.65Z" fill="white"/>
<path d="M125.196 225.374C123.422 226.038 122.61 226.74 121.844 228.276C121.695 228.574 121.215 228.574 121.067 228.276C120.301 226.74 119.489 226.037 117.714 225.374C117.371 225.245 117.371 224.83 117.714 224.702C119.489 224.038 120.301 223.336 121.067 221.799C121.215 221.502 121.695 221.502 121.844 221.799C122.611 223.336 123.422 224.039 125.196 224.702C125.539 224.83 125.539 225.245 125.196 225.374Z" fill="white"/>
<path d="M355.419 216.425C355.419 217.5 354.413 218.371 353.171 218.371C351.929 218.371 350.922 217.5 350.922 216.425C350.922 215.349 351.929 214.478 353.171 214.478C354.413 214.478 355.419 215.349 355.419 216.425Z" fill="white"/>
<path d="M377.468 239.682C378.433 239.682 379.216 239.005 379.216 238.168C379.216 237.332 378.433 236.655 377.468 236.655C376.502 236.655 375.719 237.332 375.719 238.168C375.719 239.005 376.502 239.682 377.468 239.682Z" fill="white"/>
<path d="M662.227 213.674C662.916 213.674 663.475 213.19 663.475 212.593C663.475 211.996 662.916 211.512 662.227 211.512C661.537 211.512 660.978 211.996 660.978 212.593C660.978 213.19 661.537 213.674 662.227 213.674Z" fill="white"/>
<path d="M556.74 308.132C556.74 309.208 555.733 310.079 554.492 310.079C553.25 310.079 552.243 309.208 552.243 308.132C552.243 307.057 553.25 306.186 554.492 306.186C555.735 306.187 556.74 307.058 556.74 308.132Z" fill="white"/>
<path d="M175.605 318.86C175.605 319.577 174.934 320.157 174.107 320.157C173.279 320.157 172.608 319.576 172.608 318.86C172.608 318.143 173.28 317.562 174.107 317.562C174.934 317.562 175.605 318.143 175.605 318.86Z" fill="white"/>
<path d="M239.925 231.124C239.925 232.188 239.849 233.238 239.698 234.276C237.909 247.173 225.228 257.168 209.848 257.168C193.255 257.168 179.787 245.505 179.787 231.124C179.787 226.672 181.076 222.496 183.351 218.831C188.432 210.65 198.397 205.094 209.848 205.094C226.456 205.094 239.925 216.756 239.925 231.124Z" fill="#1E5177"/>
<path d="M239.926 231.124C239.926 232.188 239.85 233.238 239.699 234.276C234.618 242.458 224.653 248.014 213.185 248.014C196.592 248.014 183.124 236.351 183.124 221.984C183.124 220.921 183.199 219.87 183.351 218.832C188.431 210.651 198.396 205.095 209.848 205.095C221.345 205.095 231.355 210.689 236.406 218.911C236.74 219.449 237.058 220.014 237.331 220.579H237.346C238.256 222.352 238.954 224.243 239.378 226.2C239.5 226.712 239.591 227.237 239.666 227.763C239.835 228.865 239.926 229.981 239.926 231.124Z" fill="#5185AC"/>
<path d="M211.057 219.466C211.057 222.377 208.937 224.738 206.322 224.738C203.707 224.738 201.587 222.378 201.587 219.466C201.587 216.554 203.707 214.195 206.322 214.195C208.937 214.195 211.057 216.556 211.057 219.466Z" fill="#48509C" stroke="#424A8F" stroke-miterlimit="10"/>
<path d="M239.38 226.2C238.197 227.408 236.013 228.223 233.51 228.223C229.733 228.223 226.669 226.358 226.669 224.046C226.669 221.747 229.733 219.869 233.51 219.869C234.921 219.869 236.241 220.132 237.333 220.578C237.06 220.013 236.741 219.449 236.407 218.91C235.513 218.673 234.526 218.555 233.51 218.555C228.9 218.555 225.153 221.024 225.153 224.045C225.153 227.078 228.9 229.534 233.51 229.534C235.952 229.534 238.151 228.851 239.668 227.762C239.592 227.236 239.501 226.711 239.38 226.2Z" fill="#424A8F"/>
<path d="M208.351 245.239C208.351 248.149 205.475 250.51 201.925 250.51C198.375 250.51 195.499 248.151 195.499 245.239C195.499 242.328 198.375 239.967 201.925 239.967C205.475 239.967 208.351 242.326 208.351 245.239Z" stroke="#424A8F" stroke-miterlimit="10"/>
<path d="M502.252 367.967H267.517V518.287H502.252V367.967Z" fill="white"/>
<path d="M299.203 392.356H469.463" stroke="#B6B7D4" stroke-miterlimit="10"/>
<path d="M299.203 409.806H469.463" stroke="#B6B7D4" stroke-miterlimit="10"/>
<path d="M299.203 427.256H469.463" stroke="#B6B7D4" stroke-miterlimit="10"/>
<path d="M299.203 444.706H469.463" stroke="#B6B7D4" stroke-miterlimit="10"/>
<path d="M299.203 462.156H469.463" stroke="#B6B7D4" stroke-miterlimit="10"/>
<path d="M565.191 654.179V670.524H416.544L394.857 662.896L416.544 654.179H565.191Z" fill="#2B305D"/>
<path d="M417.111 654.179V670.524H416.544L401.829 665.353L394.857 662.896L401.829 660.088L416.544 654.179H417.111Z" fill="#FADED1"/>
<path d="M401.828 660.088V665.353L394.856 662.896L401.828 660.088Z" fill="#2B305D"/>
<path d="M570.954 659.319H417.177V665.72H570.954V659.319Z" fill="#3A407D"/>
<path d="M616.814 460.514C616.814 460.514 615.575 469.099 607.076 483.051C599.69 495.175 617.346 508.041 617.346 508.041C617.346 508.041 632.08 499.612 630.095 484.43C628.109 469.25 616.814 460.514 616.814 460.514Z" fill="#FFCAA1"/>
<path d="M622.408 495.879C622.408 501.86 620.309 506.707 617.718 506.707C615.128 506.707 613.028 501.859 613.028 495.879C613.028 489.9 615.128 485.051 617.718 485.051C620.309 485.051 622.408 489.9 622.408 495.879Z" fill="#FFA661"/>
<path d="M617.696 500.523V517.395" stroke="#2B305D" stroke-miterlimit="10"/>
<path d="M666.69 514.034H572.272V649.687H666.69V514.034Z" fill="#FABDA0"/>
<path d="M645.908 514.034H572.272V649.687H645.908V514.034Z" fill="#FAC7AF"/>
<path d="M367.762 394.146C337.932 387.298 325.427 360.03 325.427 360.03C328.141 357.975 330.879 356.261 333.602 354.819C342.213 350.279 350.603 348.549 356.941 347.959C363.548 347.349 367.912 347.984 367.912 347.984C378.25 379.002 367.762 394.146 367.762 394.146Z" fill="#FFCAA1"/>
<path d="M359.213 378.323C346.443 372.906 337.148 360.26 333.602 354.82C342.213 350.28 350.603 348.55 356.942 347.96C363.642 364.566 359.213 378.323 359.213 378.323Z" fill="#FFA661"/>
<path d="M367.911 347.985C359.792 347.586 352.425 348.733 346.205 350.472C345.997 350.528 345.776 350.581 345.562 350.661C345.354 350.717 345.133 350.77 344.919 350.848C332.885 354.429 325.427 360.03 325.427 360.03C305.729 328.423 297.758 306.084 295.25 290.668C291.554 268.013 299.678 260.359 299.678 260.359C310.77 261.689 321.232 269.839 330.496 280.67C352.684 306.62 367.911 347.985 367.911 347.985Z" fill="#9C9DB5"/>
<path d="M327.739 381.713C325.609 382.405 323.718 383.036 322.125 383.581C318.732 379.704 307.773 367.013 305.86 362.978C303.59 358.179 315.185 342.012 315.185 342.012L325.427 360.031L327.739 381.713Z" fill="#1E5177"/>
<path d="M391.519 361.815C388.95 362.604 386.202 363.44 383.331 364.327L367.911 347.985L359.792 328.973C359.792 328.973 378.938 332.848 383.568 338.641C386.807 342.691 389.938 354.872 391.519 361.815Z" fill="#1E5177"/>
<path d="M346.206 350.472C345.998 350.529 345.776 350.581 345.563 350.661C345.355 350.717 345.133 350.77 344.92 350.848L306.937 277.383L307.553 277.142L308.169 276.901L346.206 350.472Z" fill="#B6B7D4"/>
<path d="M330.497 280.67C315.818 276.752 300.183 284.662 295.251 290.668C291.555 268.013 299.679 260.359 299.679 260.359C310.771 261.691 321.233 269.839 330.497 280.67Z" fill="#1E5177"/>
<path d="M339.184 313.233C337.454 319.972 329.743 324.222 321.96 322.725C314.177 321.228 309.27 314.551 310.998 307.812C312.727 301.073 320.439 296.822 328.222 298.32C336.005 299.817 340.914 306.494 339.184 313.233Z" fill="#48509C"/>
<path d="M322.754 319.627C316.956 318.512 313.286 313.52 314.575 308.499C315.864 303.478 321.629 300.302 327.428 301.417C333.226 302.532 336.896 307.524 335.608 312.544C334.318 317.566 328.552 320.742 322.754 319.627Z" fill="#2B305D"/>
<path d="M753 761.046V763.495C723.181 770.865 685.441 774.978 644.402 774.978C558.952 774.978 459.179 757.129 386.65 713.57C323.142 675.447 217.527 669.521 140.103 671.309C79.1554 672.704 26.8972 678.825 0 682.963V680.515C27.5598 676.279 80.4957 670.256 139.395 668.885C217.18 667.048 323.308 672.925 387.163 711.268C494.45 775.713 661.42 783.768 753 761.046Z" fill="#FAB696"/>
<path d="M177.841 684.311L308.426 692.582C315.937 693.059 323.035 695.738 328.549 700.179L340.863 710.097" stroke="#2B305D" stroke-width="3" stroke-miterlimit="10" stroke-linecap="round"/>
<path d="M330.658 684.035L200.073 692.306C192.563 692.782 185.464 695.462 179.95 699.903L167.636 709.821" stroke="#2B305D" stroke-width="3" stroke-miterlimit="10" stroke-linecap="round"/>
<path opacity="0.35" d="M245.14 694.139C249.474 678.062 237.935 661.987 219.368 658.235C200.801 654.482 182.236 664.473 177.902 680.549C173.568 696.626 185.106 712.701 203.674 716.454C222.241 720.206 240.806 710.215 245.14 694.139Z" fill="white"/>
<path opacity="0.35" d="M331.71 692.06C334.74 675.76 321.936 660.42 303.111 657.797C284.287 655.173 266.57 666.26 263.54 682.56C260.511 698.859 273.315 714.199 292.14 716.823C310.964 719.446 328.681 708.359 331.71 692.06Z" fill="white"/>
<path d="M211.535 717.437C230.601 717.437 246.058 704.054 246.058 687.545C246.058 671.035 230.601 657.652 211.535 657.652C192.468 657.652 177.011 671.035 177.011 687.545C177.011 704.054 192.468 717.437 211.535 717.437Z" stroke="#2B305D" stroke-width="3" stroke-miterlimit="10"/>
<path d="M297.625 717.437C316.692 717.437 332.149 704.054 332.149 687.545C332.149 671.035 316.692 657.652 297.625 657.652C278.559 657.652 263.102 671.035 263.102 687.545C263.102 704.054 278.559 717.437 297.625 717.437Z" stroke="#2B305D" stroke-width="3" stroke-miterlimit="10"/>
<path d="M554.066 492.037H219.829V648.963H554.066V492.037Z" fill="#FFC794"/>
<path d="M540.618 528.496H229.979V605.026H540.618V528.496Z" fill="#C96357"/>
<path d="M558.573 648.986C493.741 648.975 221.142 648.966 219.826 648.966H218.429C211.829 648.966 207.143 643.413 209.115 637.973L216.209 618.488L216.585 617.472L221.776 603.214H553.91L559.63 617.472L560.041 618.488L567.781 637.76C569.99 643.251 565.292 648.986 558.573 648.986Z" fill="#FFC794"/>
<path d="M228.275 493.426V471.656L191.46 453.773H161.828V477.098H173.501V459.993H187.869L220.117 475.162V491.942C220.117 491.942 228.275 493.99 228.275 493.426Z" fill="#8C8DA3"/>
<path d="M532.469 477.242H239.897V480.332H532.469V477.242Z" fill="#9A9CB4"/>
<path d="M269.659 477.509H254.937V493.341H269.659V477.509Z" fill="#8C8DA3"/>
<path d="M516.172 477.509H501.449V493.341H516.172V477.509Z" fill="#8C8DA3"/>
<path d="M537.273 473.022H528.902V493.342H537.273V473.022Z" fill="#8C8DA3"/>
<path d="M244.729 473.022H236.358V493.342H244.729V473.022Z" fill="#8C8DA3"/>
<path d="M438.342 492.037C435.148 504.872 412.55 514.816 385.149 514.816C357.737 514.816 335.14 504.871 331.945 492.037H438.342Z" fill="#C96357"/>
<path d="M288.837 474.809H275.54V481.36H288.837V474.809Z" fill="#2B305D"/>
<path d="M495.638 474.809H482.341V481.36H495.638V474.809Z" fill="#2B305D"/>
<path d="M448.681 601.093H327.653V607.953H448.681V601.093Z" fill="white"/>
<path d="M279.132 530.432V539.498" stroke="#2B305D" stroke-miterlimit="10"/>
<path d="M309.351 530.432V539.498" stroke="#2B305D" stroke-miterlimit="10"/>
<path d="M339.569 530.432V539.498" stroke="#2B305D" stroke-miterlimit="10"/>
<path d="M369.787 530.432V539.498" stroke="#2B305D" stroke-miterlimit="10"/>
<path d="M400.006 530.432V539.498" stroke="#2B305D" stroke-miterlimit="10"/>
<path d="M430.223 530.432V539.498" stroke="#2B305D" stroke-miterlimit="10"/>
<path d="M460.442 530.432V539.498" stroke="#2B305D" stroke-miterlimit="10"/>
<path d="M490.66 530.432V539.498" stroke="#2B305D" stroke-miterlimit="10"/>
<path d="M263.219 547.274V556.34" stroke="#2B305D" stroke-miterlimit="10"/>
<path d="M293.436 547.274V556.34" stroke="#2B305D" stroke-miterlimit="10"/>
<path d="M323.655 547.274V556.34" stroke="#2B305D" stroke-miterlimit="10"/>
<path d="M353.873 547.274V556.34" stroke="#2B305D" stroke-miterlimit="10"/>
<path d="M384.092 547.274V556.34" stroke="#2B305D" stroke-miterlimit="10"/>
<path d="M414.311 547.274V556.34" stroke="#2B305D" stroke-miterlimit="10"/>
<path d="M444.529 547.274V556.34" stroke="#2B305D" stroke-miterlimit="10"/>
<path d="M474.746 547.274V556.34" stroke="#2B305D" stroke-miterlimit="10"/>
<path d="M504.205 547.274V556.34" stroke="#2B305D" stroke-miterlimit="10"/>
<path d="M279.132 567.498V576.564" stroke="#2B305D" stroke-miterlimit="10"/>
<path d="M309.351 567.498V576.564" stroke="#2B305D" stroke-miterlimit="10"/>
<path d="M339.569 567.498V576.564" stroke="#2B305D" stroke-miterlimit="10"/>
<path d="M369.787 567.498V576.564" stroke="#2B305D" stroke-miterlimit="10"/>
<path d="M400.006 567.498V576.564" stroke="#2B305D" stroke-miterlimit="10"/>
<path d="M430.223 567.498V576.564" stroke="#2B305D" stroke-miterlimit="10"/>
<path d="M460.442 567.498V576.564" stroke="#2B305D" stroke-miterlimit="10"/>
<path d="M490.66 567.498V576.564" stroke="#2B305D" stroke-miterlimit="10"/>
<path d="M263.219 584.339V593.405" stroke="#2B305D" stroke-miterlimit="10"/>
<path d="M293.436 584.339V593.405" stroke="#2B305D" stroke-miterlimit="10"/>
<path d="M323.655 584.339V593.405" stroke="#2B305D" stroke-miterlimit="10"/>
<path d="M353.873 584.339V593.405" stroke="#2B305D" stroke-miterlimit="10"/>
<path d="M384.092 584.339V593.405" stroke="#2B305D" stroke-miterlimit="10"/>
<path d="M414.311 584.339V593.405" stroke="#2B305D" stroke-miterlimit="10"/>
<path d="M444.529 584.339V593.405" stroke="#2B305D" stroke-miterlimit="10"/>
<path d="M474.746 584.339V593.405" stroke="#2B305D" stroke-miterlimit="10"/>
<path d="M504.205 584.339V593.405" stroke="#2B305D" stroke-miterlimit="10"/>
<path d="M288.711 526.423H269.637V533.744H288.711V526.423Z" fill="white"/>
<path d="M318.859 526.423H299.797V533.744H318.859V526.423Z" fill="white"/>
<path d="M349.021 526.423H329.947V533.744H349.021V526.423Z" fill="white"/>
<path d="M379.17 526.423H360.097V533.744H379.17V526.423Z" fill="white"/>
<path d="M409.32 526.423H390.246V533.744H409.32V526.423Z" fill="white"/>
<path d="M439.468 526.423H420.395V533.744H439.468V526.423Z" fill="white"/>
<path d="M469.618 526.423H450.556V533.744H469.618V526.423Z" fill="white"/>
<path d="M499.778 526.423H480.704V533.744H499.778V526.423Z" fill="white"/>
<path d="M272.804 544.603H253.73V551.924H272.804V544.603Z" fill="white"/>
<path d="M302.953 544.603H283.891V551.924H302.953V544.603Z" fill="white"/>
<path d="M333.115 544.603H314.041V551.924H333.115V544.603Z" fill="white"/>
<path d="M363.264 544.603H344.19V551.924H363.264V544.603Z" fill="white"/>
<path d="M393.414 544.603H374.34V551.924H393.414V544.603Z" fill="white"/>
<path d="M423.562 544.603H404.488V551.924H423.562V544.603Z" fill="white"/>
<path d="M453.712 544.603H434.65V551.924H453.712V544.603Z" fill="white"/>
<path d="M483.873 544.603H464.799V551.924H483.873V544.603Z" fill="white"/>
<path d="M513.722 544.603H494.648V551.924H513.722V544.603Z" fill="white"/>
<path d="M288.711 564.321H269.637V571.643H288.711V564.321Z" fill="white"/>
<path d="M318.859 564.321H299.797V571.643H318.859V564.321Z" fill="white"/>
<path d="M349.021 564.321H329.947V571.643H349.021V564.321Z" fill="white"/>
<path d="M379.17 564.321H360.097V571.643H379.17V564.321Z" fill="white"/>
<path d="M409.32 564.321H390.246V571.643H409.32V564.321Z" fill="white"/>
<path d="M439.468 564.321H420.395V571.643H439.468V564.321Z" fill="white"/>
<path d="M469.618 564.321H450.556V571.643H469.618V564.321Z" fill="white"/>
<path d="M499.778 564.321H480.704V571.643H499.778V564.321Z" fill="white"/>
<path d="M272.804 582.501H253.73V589.823H272.804V582.501Z" fill="white"/>
<path d="M302.953 582.501H283.891V589.823H302.953V582.501Z" fill="white"/>
<path d="M333.115 582.501H314.041V589.823H333.115V582.501Z" fill="white"/>
<path d="M363.264 582.501H344.19V589.823H363.264V582.501Z" fill="white"/>
<path d="M393.414 582.501H374.34V589.823H393.414V582.501Z" fill="white"/>
<path d="M423.562 582.501H404.488V589.823H423.562V582.501Z" fill="white"/>
<path d="M453.712 582.501H434.65V589.823H453.712V582.501Z" fill="white"/>
<path d="M483.873 582.501H464.799V589.823H483.873V582.501Z" fill="white"/>
<path d="M513.722 582.501H494.648V589.823H513.722V582.501Z" fill="white"/>
<path d="M560.043 618.487H216.209L216.585 617.47H559.632L560.043 618.487Z" fill="#C96357"/>
<path d="M553.544 491.693H220.108V499.109H553.544V491.693Z" fill="#E16F61"/>
<path d="M626.853 595.777V631.613C626.853 654.685 606.896 674.563 580.358 676.68C574.17 677.183 568.17 676.704 562.536 675.428C540.511 670.433 524.27 653.105 524.27 632.467V595.777C524.27 591.355 528.418 587.763 533.525 587.763H617.598C622.705 587.763 626.853 591.355 626.853 595.777Z" fill="#FAF8F7"/>
<path d="M628.191 647.866C611.71 647.866 598.301 636.255 598.301 621.985C598.301 607.715 611.71 596.106 628.191 596.106C644.672 596.106 658.08 607.715 658.08 621.985C658.081 636.255 644.673 647.866 628.191 647.866ZM628.191 603.126C616.179 603.126 606.408 611.586 606.408 621.985C606.408 632.386 616.18 640.846 628.191 640.846C640.202 640.846 649.972 632.386 649.972 621.985C649.974 611.586 640.202 603.126 628.191 603.126Z" fill="#FAF8F7"/>
<path d="M600.789 587.763V632.467C600.789 653.094 584.561 670.433 562.536 675.428C540.511 670.433 524.27 653.105 524.27 632.467V595.777C524.27 591.355 528.418 587.763 533.525 587.763H600.789Z" fill="white"/>
<path d="M637.292 682.091H520.642C518.404 682.091 516.589 680.52 516.589 678.581C516.589 676.643 518.404 675.071 520.642 675.071H637.292C639.531 675.071 641.346 676.643 641.346 678.581C641.346 680.52 639.531 682.091 637.292 682.091Z" fill="#FAF8F7"/>
<path d="M81.1615 724.224C92.3676 724.224 101.452 718.543 101.452 711.535C101.452 704.528 92.3676 698.847 81.1615 698.847C69.9554 698.847 60.8711 704.528 60.8711 711.535C60.8711 718.543 69.9554 724.224 81.1615 724.224Z" stroke="#FAB696" stroke-miterlimit="10"/>
<path d="M747.483 710.127C749.433 710.127 751.282 710.302 753 710.652V708.131C751.253 707.806 749.404 707.631 747.483 707.631C736.041 707.631 727.073 713.846 727.073 721.784C727.073 729.721 736.041 735.937 747.483 735.937C749.404 735.937 751.253 735.762 753 735.437V732.916C751.282 733.266 749.433 733.441 747.483 733.441C736.143 733.441 728.529 727.4 728.529 721.784C728.529 716.168 736.143 710.127 747.483 710.127Z" fill="#FAB696"/>
</g>
</svg>
