<svg width="763" height="903" viewBox="0 0 763 903" fill="none" xmlns="http://www.w3.org/2000/svg">
<mask id="mask0_153_1181" style="mask-type:alpha" maskUnits="userSpaceOnUse" x="0" y="0" width="763" height="903">
<rect width="763" height="902.844" rx="31" fill="#04273A"/>
</mask>
<g mask="url(#mask0_153_1181)">
<rect width="763" height="902.844" rx="31" fill="#04273A"/>
<path d="M764.142 0V110.806C752.957 132.027 737.509 161.225 716.328 174.633C664.04 207.735 640.765 199.179 634.981 234.549C629.198 269.918 626.878 261.065 597.976 293.124C569.074 325.168 579.373 441.736 562.541 494.856H226.159C226.159 494.856 188.138 411.805 187.757 336.165C187.528 291.053 124.077 293.313 113.883 239.26C111.167 224.864 99.9506 207.113 73.917 199.821C41.1843 190.661 17.2109 169.731 1.14209 144.133V0H764.142Z" fill="#0B3351"/>
<path d="M625.935 125.66C581.229 177.692 624.52 237.17 579.366 272.107C535.555 306.008 529.868 395.311 529.868 395.311C529.868 395.311 335.575 429.637 329.366 375.469C319.677 290.86 254.451 325.973 239.882 244.665C225.312 163.356 204.504 179.86 134.773 129.2C85.7924 93.5931 80.9839 34.1628 82.4568 1.95209H674.785C677.038 39.0263 665.212 79.9435 625.935 125.66Z" fill="#1A3C4F"/>
<path d="M574.992 458.594H626.46C626.46 458.594 619.892 450.629 610.306 453.105C610.306 453.105 599.142 439.241 587.601 454.118C587.601 454.118 579.807 450.749 574.992 458.594Z" fill="#FAEEE8"/>
<path d="M328.237 390.906H379.706C379.706 390.906 373.137 382.94 363.55 385.416C363.55 385.416 352.386 371.553 340.845 386.429C340.845 386.429 333.052 383.059 328.237 390.906Z" fill="#FAB696"/>
<path d="M352.374 257.657H403.842C403.842 257.657 397.273 249.692 387.686 252.168C387.686 252.168 376.522 238.304 364.981 253.181C364.981 253.181 357.188 249.811 352.374 257.657Z" fill="#FAB696"/>
<path d="M576.267 439.196H648.341C648.341 439.196 638.759 430.829 627.718 435.101C627.718 435.101 613.969 417.122 597.93 433.855C597.93 433.855 583.141 430.117 576.267 439.196Z" fill="#EAC9BA"/>
<path d="M571.731 301.134H623.199C623.199 301.134 616.63 293.168 607.045 295.644C607.045 295.644 595.88 281.78 584.34 296.657C584.34 296.657 576.545 293.288 571.731 301.134Z" fill="white"/>
<path d="M167.253 441.849H218.722C218.722 441.849 212.153 433.884 202.567 436.36C202.567 436.36 191.403 422.496 179.862 437.373C179.862 437.373 172.068 434.004 167.253 441.849Z" fill="white"/>
<path d="M183.062 333.104H234.53C234.53 333.104 227.961 325.138 218.375 327.615C218.375 327.615 207.211 313.751 195.67 328.628C195.67 328.628 187.876 325.258 183.062 333.104Z" fill="white"/>
<path d="M215.304 311.559H287.379C287.379 311.559 279.873 299.14 264.708 303.999C264.708 303.999 253.008 289.486 236.968 306.219C236.968 306.219 222.178 302.481 215.304 311.559Z" fill="#E2E2E2"/>
<path d="M207.427 596.302L166.044 612.026C119.693 569.49 121.806 551.326 134.222 551.277C143.337 551.228 159.1 564.825 159.591 565.254C159.431 564.864 155.719 556.343 151.972 545.665C155.547 547.002 159.968 548.31 161.201 547.158C162.835 545.635 153.777 540.033 149.185 537.339C143.428 518.96 139.785 498.853 152.897 502.153C156.256 503.002 159.796 505.51 163.383 509.19C162.675 513.797 162.298 518.892 164.148 518.706C165.827 518.54 167.392 516.862 168.546 515.222C188.42 541.058 208.158 595.375 207.427 596.302Z" fill="#FAB696"/>
<path d="M157.197 518.786L179.278 573.795" stroke="#FADED1" stroke-miterlimit="10"/>
<path d="M140.595 562.602L163.06 586.979" stroke="#FADED1" stroke-miterlimit="10"/>
<path d="M588.264 625.076C588.264 625.076 588.355 624.998 588.481 624.891H539.845L582.119 572.828C582.119 570.71 607.601 501.655 627.487 500.591C637.882 500.035 638.441 514.129 633.655 531.122C628.915 532.469 622.085 534.821 622.313 537.173C622.53 539.291 627.145 539.74 630.88 539.75C626.083 552.936 618.738 566.669 610.72 576.01C611.439 575.522 637.059 558.012 653.598 562.209C662.759 564.522 644.918 582.95 626.802 599.23C637.208 600.284 651.897 605.682 664.027 625.076H588.264Z" fill="#FAB696"/>
<path d="M619.245 519.392C619.245 519.392 600.199 567.013 583.269 584.795" stroke="#FADED1" stroke-miterlimit="10"/>
<path d="M635.469 573.945C635.469 573.945 605.136 592.631 592.439 614.03" stroke="#FADED1" stroke-miterlimit="10"/>
<path d="M330.352 655.081C330.352 658.128 291.584 660.599 243.76 660.599C195.937 660.599 157.168 658.129 157.168 655.081C157.168 652.033 195.936 649.562 243.76 649.562C291.585 649.562 330.352 652.033 330.352 655.081Z" fill="#FABDA0"/>
<path d="M509.448 665.568C579.283 665.568 635.896 663.098 635.896 660.05C635.896 657.002 579.283 654.531 509.448 654.531C439.613 654.531 383 657.002 383 660.05C383 663.098 439.613 665.568 509.448 665.568Z" fill="#FABDA0"/>
<path d="M548.335 515.072H280.154C263.821 515.072 250.579 503.757 250.579 489.8C250.579 475.842 263.821 464.527 280.154 464.527H548.335V515.072Z" fill="#8C8DA3"/>
<path d="M530.161 515.072H442.187C425.852 515.072 412.612 503.757 412.612 489.8C412.612 475.842 425.854 464.527 442.187 464.527H530.161V515.072Z" fill="#3A407D"/>
<path d="M442.187 509.216C429.656 509.216 419.463 500.506 419.463 489.8C419.463 479.092 429.656 470.382 442.187 470.382H523.307V509.216H442.187Z" fill="#FAEEE8"/>
<path d="M375.598 483.8H305.05V496.587H375.598V483.8Z" fill="#A0A1BA"/>
<path d="M468.599 565.543H200.418C184.083 565.543 170.843 554.228 170.843 540.27C170.843 526.312 184.084 514.997 200.418 514.997H468.599V565.543Z" fill="#BFC1D1"/>
<path d="M570.187 565.543H362.45C346.116 565.543 332.875 554.228 332.875 540.27C332.875 526.312 346.116 514.997 362.45 514.997H570.187V565.543Z" fill="#3A407D"/>
<path d="M362.45 559.687C349.92 559.687 339.728 550.976 339.728 540.269C339.728 529.562 349.921 520.852 362.45 520.852H563.334V559.686H362.45V559.687Z" fill="#FAEEE8"/>
<path d="M207.776 550.249H202.574C199.798 550.249 197.549 548.327 197.549 545.956V533.966C197.549 531.594 199.798 529.672 202.574 529.672H207.776C210.55 529.672 212.8 531.595 212.8 533.966V545.956C212.8 548.327 210.55 550.249 207.776 550.249Z" fill="#3A407D"/>
<path d="M231.22 550.249H226.019C223.244 550.249 220.994 548.327 220.994 545.956V533.966C220.994 531.594 223.244 529.672 226.019 529.672H231.22C233.996 529.672 236.245 531.595 236.245 533.966V545.956C236.245 548.327 233.996 550.249 231.22 550.249Z" fill="#3A407D"/>
<path d="M496.094 624.35H184.578C165.604 624.35 150.222 611.206 150.222 594.992C150.222 578.779 165.603 565.635 184.578 565.635H496.095L496.094 624.35Z" fill="#E16F61"/>
<path d="M184.578 617.209C170.242 617.209 158.58 607.243 158.58 594.992C158.58 582.742 170.242 572.775 184.578 572.775H496.068V617.209H184.578Z" fill="#FAEEE8"/>
<path d="M494.267 585.403H256.476" stroke="#FACEB9" stroke-miterlimit="10"/>
<path d="M597.884 533.27H360.093" stroke="#FACEB9" stroke-miterlimit="10"/>
<path d="M597.884 546.51H360.093" stroke="#FACEB9" stroke-miterlimit="10"/>
<path d="M495.083 597.676H186.69" stroke="#FACEB9" stroke-miterlimit="10"/>
<path d="M494.267 604.394H400.046" stroke="#FACEB9" stroke-miterlimit="10"/>
<path d="M642.811 329.261L628.601 341.043C610.667 355.919 600.702 375.437 600.702 395.7V557.143C600.702 578.47 589.677 598.94 570.034 614.023L556.094 624.728H320.461L334.402 614.023C354.061 598.939 365.088 578.47 365.088 557.143V395.7C365.088 375.437 375.053 355.919 392.987 341.043L407.179 329.261H642.811Z" fill="white"/>
<path d="M406.833 364.109C408.196 379.939 450.446 384.649 458.296 367.774C465.769 351.707 435.674 372.113 473.292 382.176C517.862 394.098 539.37 355.061 527.92 355.341C517.518 355.595 519.764 378.157 569.796 373.271" stroke="#FADED1" stroke-miterlimit="10"/>
<path d="M407.74 421.144C420.43 432.965 446.605 421.554 445.034 402.207C443.657 385.261 427.823 418.878 452.369 425.22C460.496 427.319 469.438 425.645 475.789 420.829C479.406 418.086 482.353 414.235 481.398 409.212C479.218 397.731 460.394 442.574 528.451 427.316" stroke="#FADED1" stroke-miterlimit="10"/>
<path d="M407.309 487.223C407.309 487.223 437.823 475.702 435.485 465.138C433.148 454.574 414.795 479.622 440.464 481.889C466.133 484.156 468.96 465.122 463.36 466.338C457.758 467.554 459.3 493.184 491.744 485.456C524.187 477.729 528.263 460.581 524.448 463.172C520.632 465.764 544.997 491.532 562.516 473.729" stroke="#FADED1" stroke-miterlimit="10"/>
<path d="M407.343 542.709C407.343 542.709 426.373 528.792 420.906 522.727C415.438 516.662 407.142 539.324 428.023 537.447C448.904 535.571 452.597 521.35 447.983 520.095C443.37 518.841 441.308 550.93 484.73 536.921C528.151 522.913 501.735 508.062 496.958 513.603C492.181 519.144 509.697 546.502 533.743 540.609C557.789 534.716 549.137 513.274 542.126 519.396C535.115 525.519 539.038 543.772 560.456 541.387" stroke="#FADED1" stroke-miterlimit="10"/>
<path d="M562.448 265.11C560.315 265.923 559.286 266.802 558.336 268.624C558.117 269.046 557.399 269.046 557.179 268.624C556.229 266.802 555.199 265.923 553.067 265.11C552.573 264.922 552.573 264.31 553.067 264.122C555.199 263.31 556.229 262.43 557.179 260.608C557.398 260.186 558.115 260.186 558.336 260.608C559.286 262.43 560.315 263.31 562.448 264.122C562.941 264.309 562.941 264.922 562.448 265.11Z" fill="white"/>
<path d="M641.941 391.451C639.809 392.263 638.779 393.143 637.829 394.965C637.61 395.387 636.892 395.387 636.672 394.965C635.722 393.143 634.693 392.263 632.56 391.451C632.067 391.263 632.067 390.651 632.56 390.462C634.693 389.65 635.722 388.771 636.672 386.949C636.891 386.527 637.609 386.527 637.829 386.949C638.779 388.771 639.809 389.65 641.941 390.462C642.434 390.651 642.434 391.264 641.941 391.451Z" fill="white"/>
<path d="M193.682 391.797C191.377 392.648 190.324 393.549 189.327 395.518C189.135 395.899 188.511 395.899 188.318 395.518C187.322 393.549 186.268 392.648 183.963 391.797C183.518 391.633 183.518 391.1 183.963 390.935C186.268 390.084 187.322 389.183 188.318 387.213C188.51 386.833 189.134 386.833 189.327 387.213C190.323 389.183 191.377 390.084 193.682 390.935C194.128 391.1 194.128 391.633 193.682 391.797Z" fill="white"/>
<path d="M305.238 259.246C302.933 260.098 301.88 260.998 300.883 262.968C300.691 263.349 300.067 263.349 299.874 262.968C298.878 260.998 297.824 260.099 295.519 259.246C295.073 259.082 295.073 258.55 295.519 258.385C297.824 257.533 298.878 256.633 299.874 254.663C300.066 254.282 300.689 254.282 300.883 254.663C301.879 256.633 302.933 257.533 305.238 258.385C305.683 258.55 305.683 259.082 305.238 259.246Z" fill="white"/>
<path d="M320.455 274.127C320.455 274.967 319.659 275.647 318.676 275.647C317.694 275.647 316.898 274.967 316.898 274.127C316.898 273.288 317.694 272.608 318.676 272.608C319.659 272.608 320.455 273.288 320.455 274.127Z" fill="white"/>
<path d="M436.526 446.462L426.971 420.269L430.233 419.4L434.973 432.394L435.289 432.31L442.652 416.092L446.914 414.956L439.911 429.787L456.469 441.149L452.522 442.2L438.714 432.52L436.69 437.1L439.788 445.592L436.526 446.462Z" fill="#E16F61"/>
<path d="M424.659 386.8L415.599 371.999L421.138 369.523C422.241 369.03 423.261 368.801 424.196 368.837C425.128 368.869 425.952 369.105 426.669 369.545C427.382 369.981 427.96 370.56 428.402 371.283C428.792 371.919 428.992 372.498 429.003 373.021C429.02 373.541 428.905 374.01 428.661 374.426C428.422 374.839 428.11 375.206 427.727 375.524L427.816 375.669C428.318 375.481 428.903 375.422 429.57 375.492C430.237 375.562 430.9 375.793 431.561 376.185C432.221 376.577 432.79 377.164 433.268 377.944C433.722 378.686 433.95 379.434 433.952 380.188C433.954 380.942 433.671 381.667 433.105 382.362C432.539 383.057 431.631 383.683 430.383 384.241L424.659 386.8ZM425.604 384.352L429.41 382.651C430.663 382.091 431.414 381.467 431.663 380.779C431.914 380.083 431.841 379.411 431.442 378.76C431.136 378.259 430.716 377.858 430.183 377.556C429.647 377.249 429.048 377.081 428.387 377.052C427.722 377.018 427.044 377.155 426.353 377.464L422.454 379.207L425.604 384.352ZM421.499 377.645L425.057 376.055C425.635 375.797 426.091 375.458 426.425 375.038C426.765 374.617 426.953 374.152 426.991 373.644C427.033 373.135 426.895 372.619 426.577 372.099C426.179 371.449 425.598 371.005 424.836 370.769C424.071 370.528 423.163 370.643 422.111 371.113L418.491 372.731L421.499 377.645Z" fill="#8C8DA3"/>
<path d="M362.78 362.885L359.727 361.955L378.233 341.443L381.239 342.358L380.393 368.248L377.34 367.319L378.299 345.6L378.111 345.542L362.78 362.885ZM367.687 354.165L379.993 357.912L378.953 360.405L366.648 356.657L367.687 354.165Z" fill="#E16F61"/>
<path d="M493.898 272.194L494.428 247.063L503.214 247.198C504.965 247.225 506.403 247.55 507.527 248.173C508.652 248.788 509.482 249.606 510.017 250.629C510.552 251.644 510.806 252.765 510.781 253.992C510.758 255.072 510.547 255.961 510.147 256.658C509.756 257.356 509.245 257.905 508.615 258.304C507.993 258.704 507.32 258.996 506.596 259.181L506.59 259.427C507.358 259.488 508.126 259.77 508.893 260.272C509.66 260.775 510.295 261.489 510.8 262.413C511.304 263.337 511.542 264.462 511.514 265.787C511.488 267.047 511.177 268.176 510.584 269.173C509.99 270.17 509.069 270.954 507.821 271.524C506.573 272.094 504.959 272.364 502.979 272.333L493.898 272.194ZM496.998 269.541L503.036 269.634C505.024 269.664 506.444 269.302 507.294 268.545C508.154 267.781 508.595 266.847 508.618 265.743C508.636 264.892 508.436 264.103 508.017 263.377C507.599 262.642 506.993 262.052 506.201 261.606C505.408 261.152 504.464 260.916 503.368 260.899L497.183 260.804L496.998 269.541ZM497.238 258.154L502.884 258.24C503.8 258.255 504.63 258.087 505.374 257.739C506.126 257.39 506.726 256.892 507.173 256.244C507.629 255.597 507.866 254.831 507.884 253.948C507.908 252.843 507.543 251.901 506.79 251.12C506.037 250.331 504.827 249.923 503.158 249.898L497.414 249.809L497.238 258.154Z" fill="#B1B1B1"/>
<path d="M496.632 328.758L488.704 315.807L493.388 313.714C494.471 313.23 495.466 313.005 496.372 313.04C497.276 313.071 498.079 313.311 498.779 313.761C499.479 314.21 500.063 314.816 500.53 315.579C500.997 316.342 501.244 317.093 501.272 317.833C501.299 318.572 501.071 319.265 500.587 319.911C500.1 320.552 499.32 321.113 498.246 321.593L494.455 323.288L493.588 321.871L497.325 320.201C498.065 319.87 498.599 319.503 498.926 319.099C499.258 318.693 499.412 318.259 499.388 317.797C499.366 317.329 499.196 316.836 498.878 316.317C498.561 315.799 498.18 315.392 497.735 315.097C497.29 314.802 496.775 314.651 496.19 314.644C495.603 314.633 494.935 314.794 494.186 315.129L491.234 316.448L498.31 328.008L496.632 328.758ZM499.596 320.024L506.568 324.316L504.619 325.188L497.7 320.871L499.596 320.024Z" fill="#E16F61"/>
<path d="M441.585 321.533L439.501 322.464C439.035 321.959 438.518 321.564 437.95 321.278C437.388 320.989 436.801 320.798 436.188 320.706C435.577 320.606 434.963 320.6 434.347 320.689C433.731 320.778 433.137 320.95 432.566 321.205C431.524 321.671 430.73 322.339 430.186 323.209C429.647 324.076 429.421 325.1 429.508 326.281C429.602 327.459 430.074 328.744 430.927 330.136C431.779 331.528 432.744 332.593 433.824 333.33C434.908 334.065 436.021 334.491 437.163 334.607C438.31 334.721 439.404 334.545 440.446 334.079C441.018 333.824 441.522 333.505 441.959 333.123C442.396 332.741 442.742 332.31 442.997 331.829C443.254 331.341 443.405 330.817 443.448 330.258C443.493 329.691 443.408 329.103 443.191 328.493L445.275 327.562C445.621 328.453 445.786 329.316 445.768 330.151C445.751 330.985 445.574 331.767 445.236 332.498C444.895 333.224 444.413 333.876 443.79 334.454C443.172 335.03 442.429 335.512 441.561 335.9C440.093 336.556 438.583 336.805 437.03 336.646C435.478 336.487 433.995 335.936 432.584 334.994C431.173 334.052 429.948 332.733 428.91 331.037C427.872 329.342 427.303 327.73 427.202 326.202C427.101 324.674 427.418 323.32 428.15 322.139C428.883 320.958 429.983 320.04 431.451 319.384C432.319 318.996 433.206 318.749 434.112 318.644C435.024 318.537 435.927 318.573 436.822 318.753C437.714 318.927 438.566 319.246 439.377 319.71C440.186 320.168 440.922 320.776 441.585 321.533Z" fill="#B3BBFF"/>
<path d="M418.539 293.065L410.256 279.534L415.15 277.347C416.286 276.839 417.332 276.615 418.288 276.676C419.246 276.73 420.098 277.003 420.843 277.495C421.588 277.986 422.205 278.631 422.693 279.428C423.181 280.225 423.45 281.028 423.5 281.835C423.555 282.641 423.341 283.399 422.856 284.109C422.37 284.815 421.563 285.419 420.436 285.923L416.928 287.491L416.038 286.037L419.49 284.495C420.268 284.147 420.815 283.742 421.133 283.281C421.451 282.819 421.585 282.327 421.536 281.805C421.489 281.276 421.299 280.741 420.967 280.199C420.636 279.657 420.231 279.221 419.752 278.891C419.279 278.559 418.73 278.378 418.105 278.348C417.478 278.315 416.771 278.474 415.983 278.826L412.9 280.204L420.293 292.281L418.539 293.065Z" fill="#B1B1B1"/>
<path d="M536.126 306.595L535.677 305.861L536.382 296.99L531.512 299.167L530.963 298.27L537.125 295.516L537.574 296.25L536.869 305.121L541.739 302.944L542.288 303.841L536.126 306.595Z" fill="#E16F61"/>
<path d="M361.765 311.105L357.083 311.286L356.293 296.122L361.183 295.933C362.655 295.876 363.93 296.131 365.009 296.698C366.087 297.26 366.935 298.095 367.552 299.204C368.169 300.308 368.518 301.644 368.6 303.214C368.682 304.794 368.471 306.164 367.967 307.326C367.463 308.483 366.689 309.389 365.644 310.042C364.599 310.691 363.306 311.045 361.765 311.105ZM358.835 309.586L361.562 309.481C362.816 309.432 363.843 309.15 364.643 308.634C365.443 308.119 366.022 307.406 366.38 306.497C366.739 305.588 366.886 304.517 366.821 303.283C366.758 302.059 366.503 301.012 366.057 300.144C365.61 299.271 364.977 298.613 364.158 298.17C363.337 297.722 362.335 297.521 361.149 297.567L358.215 297.68L358.835 309.586Z" fill="#4E57A8"/>
<path d="M476.828 285.109C477.664 286.475 478.122 287.773 478.203 289.004C478.284 290.235 478.03 291.326 477.44 292.277C476.849 293.228 475.963 293.968 474.781 294.496C473.599 295.025 472.382 295.225 471.131 295.097C469.88 294.969 468.686 294.525 467.549 293.766C466.412 293.007 465.426 291.945 464.59 290.579C463.754 289.213 463.295 287.915 463.214 286.684C463.133 285.453 463.388 284.362 463.978 283.411C464.568 282.46 465.454 281.72 466.637 281.192C467.819 280.663 469.035 280.463 470.286 280.591C471.537 280.719 472.731 281.163 473.868 281.922C475.005 282.681 475.992 283.743 476.828 285.109ZM475.203 285.835C474.517 284.714 473.737 283.857 472.863 283.265C471.993 282.671 471.097 282.328 470.173 282.237C469.253 282.143 468.374 282.284 467.535 282.659C466.695 283.034 466.056 283.572 465.617 284.273C465.183 284.972 465.001 285.797 465.072 286.748C465.147 287.697 465.528 288.732 466.214 289.853C466.901 290.974 467.679 291.832 468.548 292.426C469.422 293.018 470.318 293.361 471.238 293.455C472.162 293.546 473.043 293.405 473.883 293.029C474.722 292.654 475.359 292.117 475.793 291.418C476.232 290.718 476.414 289.893 476.339 288.944C476.268 287.993 475.89 286.957 475.203 285.835Z" fill="#5862BD"/>
<path d="M492.445 363.829L485.795 352.964L487.203 352.335L493.139 362.032L498.545 359.616L499.259 360.783L492.445 363.829Z" fill="#4E57A8"/>
<path d="M454.139 385.446L456.062 384.586L463.607 388.913L463.769 388.841L463.913 381.077L465.836 380.218L465.487 390.07L468.754 395.407L467.076 396.157L463.809 390.82L454.139 385.446Z" fill="#2B305D"/>
<path d="M612.021 576.18V618.439C612.021 637.687 595.153 654.273 572.721 656.045C567.49 656.457 562.421 656.057 557.658 654.994C539.038 650.833 525.3 636.374 525.3 619.159V576.18C525.3 573.746 527.601 571.779 530.451 571.779H606.87C609.719 571.78 612.021 573.746 612.021 576.18Z" fill="#E16758"/>
<path d="M613.152 629.075C625.214 629.075 634.993 620.719 634.993 610.412C634.993 600.104 625.214 591.749 613.152 591.749C601.09 591.749 591.312 600.104 591.312 610.412C591.312 620.719 601.09 629.075 613.152 629.075Z" stroke="#E16758" stroke-width="6" stroke-miterlimit="10"/>
<path d="M589.99 571.78V619.159C589.99 636.362 576.265 650.833 557.658 654.994C539.038 650.833 525.3 636.374 525.3 619.159V576.18C525.3 573.746 527.601 571.779 530.451 571.779H589.99V571.78Z" fill="#E16F61"/>
<path d="M522.239 657.626H620.847" stroke="#E16758" stroke-width="6" stroke-miterlimit="10" stroke-linecap="round"/>
<path d="M560.036 561.82C560.036 561.82 552.852 555 559.637 547.156C566.422 539.313 568.018 525.331 562.83 516.805" stroke="#2B305D" stroke-miterlimit="10"/>
<path d="M571.109 561.82C571.109 561.82 563.926 555 570.71 547.156C577.495 539.313 579.091 525.331 573.903 516.805" stroke="#2B305D" stroke-miterlimit="10"/>
<path d="M583.195 614.232C585.055 607.502 580.178 600.758 572.302 599.168C564.426 597.579 556.533 601.747 554.674 608.477C552.814 615.207 557.691 621.952 565.567 623.541C573.443 625.13 581.335 620.962 583.195 614.232Z" stroke="white" stroke-miterlimit="10"/>
<path d="M436.989 631.274C436.989 631.274 436.555 655.236 419.73 650.444C402.917 645.651 372.282 618.742 381.774 611.372C391.106 604.13 412.111 624.676 412.82 625.359C412.557 624.92 407.417 616.214 403.362 606.98C406.046 607.585 409.621 608.112 410.638 606.99C411.769 605.741 405.475 603.115 401.135 601.505C397.651 592.144 396.543 583.828 404.207 584.834C421.032 587.04 436.989 631.274 436.989 631.274Z" fill="#FAB696"/>
<path d="M391.628 620.095C391.628 620.095 422.627 646.803 432.105 647.897C441.584 648.991 409.304 596.671 409.304 596.671" stroke="#FADED1" stroke-miterlimit="10"/>
<path d="M511.301 634.749C510.559 635.627 512.592 636.496 514.865 637.169C508.571 642.342 503.637 645.846 503.637 645.846C503.637 645.846 477.606 654.738 476.292 639.619C475.561 631.108 480.713 616.428 487.44 606.072C488.742 608.298 490.239 610.279 491.175 609.684C492.329 608.942 491.587 604.725 490.798 601.446C495.162 596.107 499.845 593.032 503.865 594.643C515.482 599.279 500.701 624.529 500.701 624.529C500.701 624.529 537.081 587.986 541.17 602.11C543.615 610.533 529.771 624.481 518.223 634.358C515.642 633.958 512.226 633.665 511.301 634.749Z" fill="#FAB696"/>
<path d="M498.242 605.769C498.242 605.769 481.338 640.501 483.808 648.398C486.276 656.294 530.348 610.687 530.348 610.687" stroke="#FADED1" stroke-miterlimit="10"/>
<path d="M574.018 406.485C574.018 421.034 562.549 447.163 549.305 472.464C549.098 472.841 548.901 473.227 548.706 473.615C543.43 483.646 537.897 493.51 532.719 502.441C532.486 502.839 532.267 503.226 532.034 503.613C523.466 518.35 515.95 530.399 512.302 536.184C510.784 538.58 508.397 540.483 505.497 541.592L471.763 554.551L465.067 523.757C464.54 521.362 464.859 518.883 465.985 516.634L474.957 498.686L475.679 497.242L516.391 415.782V415.771L517.113 414.339L544.029 360.461C544.029 360.461 571.595 371.171 573.86 402.341C573.896 402.686 573.921 403.042 573.933 403.397C573.993 404.404 574.018 405.44 574.018 406.485Z" fill="#FAEEE8"/>
<path d="M471.757 554.551C471.757 554.551 524.941 442.286 560.35 372.142" stroke="#DB9F84" stroke-miterlimit="10"/>
<path d="M527.001 439.109L525.838 439.443L516.389 415.784V415.773L517.111 414.34L527.001 439.109Z" fill="#DB9F84"/>
<path d="M486.217 523.613L485.054 523.948L474.956 498.688L475.679 497.244L486.217 523.613Z" fill="#DB9F84"/>
<path d="M549.304 472.465C549.096 472.842 548.9 473.228 548.704 473.616L507.687 479.777L507.467 478.741L549.304 472.465Z" fill="#DB9F84"/>
<path d="M532.719 502.443C532.486 502.84 532.267 503.227 532.034 503.614L493.844 509.471L493.636 508.435L532.719 502.443Z" fill="#DB9F84"/>
<path d="M476.87 551.992L469.365 549.4L466.049 556.412C465.169 558.273 462.689 559.172 460.511 558.421L456.478 580.364L460.469 581.78L475.929 563.743L475.904 563.734C473.726 562.983 472.674 560.864 473.553 559.002L476.87 551.992Z" fill="#DB9F84"/>
<path d="M463.295 570.938L458.484 581.114" stroke="#2B305D" stroke-miterlimit="10"/>
<path d="M573.931 403.4L542.706 408.086L542.485 407.061L573.857 402.344C573.894 402.688 573.919 403.045 573.931 403.4Z" fill="#DB9F84"/>
<path d="M451.675 591.956C454.388 587.941 461.168 587.941 463.881 591.956L483.903 621.59L503.925 651.223C506.638 655.238 503.246 660.256 497.822 660.256H457.778H417.734C412.31 660.256 408.92 655.238 411.632 651.223L431.653 621.59L451.675 591.956Z" fill="#1C5178"/>
<path d="M474.666 585.394H441.211V612.266H474.666V585.394Z" fill="#2B305D"/>
<path d="M475.079 589.328H440.976C438.993 589.328 437.386 587.955 437.386 586.261C437.386 584.566 438.993 583.193 440.976 583.193H475.079C477.062 583.193 478.669 584.566 478.669 586.261C478.669 587.955 477.062 589.328 475.079 589.328Z" fill="#1C5178"/>
<path d="M473.086 599.419H442.969C441.218 599.419 439.798 598.205 439.798 596.71C439.798 595.214 441.218 594.002 442.969 594.002H473.086C474.837 594.002 476.256 595.215 476.256 596.71C476.256 598.206 474.837 599.419 473.086 599.419Z" fill="#1C5178"/>
<path d="M478.629 660.257H436.449C433.597 660.257 431.809 655.236 433.242 651.22L443.781 621.588L448.714 607.74H466.377L471.298 621.588L481.837 651.22C483.268 655.237 481.481 660.257 478.629 660.257Z" fill="#124266"/>
<path d="M178.724 614.132L174.183 617.076C172.479 618.05 172.444 619.899 173.509 621.396C178.765 628.791 193.314 646.822 197.436 643.144C198.651 642.059 188.977 623.747 188.977 623.747L178.724 614.132Z" fill="#2B305D"/>
<path d="M279.061 618.05L278.64 632.374C278.64 632.374 286.249 635.071 293.845 631.626L298.796 615.447C298.796 615.447 279.135 617.864 279.061 618.05Z" fill="#E16F61"/>
<path d="M277.818 646.953L277.218 651.798C276.881 653.526 278.389 655.114 280.439 655.177C290.171 655.479 314.993 656.153 315.37 655.179C315.84 653.968 293.038 647.158 293.038 647.158L287.736 647.483C286.326 647.57 284.91 647.554 283.503 647.434L277.818 646.953Z" fill="#2B305D"/>
<path d="M276.171 464.947C276.171 464.947 282.981 514.48 272.262 539.751C270.434 544.059 263.541 551.134 259.917 556.015C251.243 567.698 211.543 609.457 189.683 623.867C189.683 623.867 177.241 620.294 178.969 613.543C180.565 607.309 202.612 553.313 235.301 535.893C235.301 535.893 227.306 476.54 249.143 450.363C270.982 424.185 276.171 464.947 276.171 464.947Z" fill="#FAB696"/>
<path d="M265.627 481.203L294.401 546.711C294.401 546.711 265.408 595.27 277.586 647.038C277.586 647.038 283.235 651.128 292.986 647.681C297.881 645.951 318.467 579.936 317.055 543.872C315.642 507.808 293.753 456.324 293.753 456.324L265.627 481.203Z" fill="#FAB696"/>
<path d="M319.065 583.516C317.112 583.877 315.181 584.199 313.262 584.482H313.251C308.522 585.175 303.93 585.634 299.43 585.888C299.042 585.907 298.665 585.927 298.276 585.946C295.101 586.093 291.994 586.141 288.956 586.093C288.568 586.093 288.191 586.083 287.814 586.073C284.433 586.015 281.132 585.829 277.911 585.556C277.42 585.517 276.928 585.468 276.437 585.419C276.049 585.39 275.672 585.351 275.284 585.312C269.493 584.716 263.976 583.809 258.767 582.667C258.333 582.579 257.888 582.491 257.465 582.384C251.571 581.066 246.1 579.465 241.063 577.738C224.672 572.086 213.022 565.02 207.505 561.282C205.129 559.681 203.884 558.685 203.884 558.685C207.116 552.087 213.992 545.196 220.183 539.848C220.446 539.633 220.697 539.418 220.937 539.213C227.105 533.962 232.416 530.38 232.416 530.38C230.612 523.206 229.515 516.647 228.944 510.673V510.664C228.91 510.312 228.875 509.961 228.853 509.619C227.973 499.566 228.601 491.211 229.926 484.428C229.983 484.105 230.052 483.803 230.12 483.491V483.481C231.274 477.937 232.885 473.486 234.472 470.07C237.305 463.97 240.069 461.129 240.069 461.129L242.434 461.227L275.798 462.623L286.146 463.052L296.632 463.491L302.754 463.745C302.754 463.745 303.816 466.82 305.758 472.354C306.809 475.341 308.111 479.03 309.63 483.354C309.744 483.676 309.87 484.008 309.984 484.349C313.08 493.124 317.066 504.319 321.692 517.184C321.806 517.516 321.92 517.847 322.046 518.179C322.411 519.185 322.777 520.209 323.143 521.234C326.147 529.589 327.426 537.603 327.654 544.933C327.666 545.284 327.677 545.635 327.677 545.987C328.054 567.919 319.065 583.516 319.065 583.516Z" fill="#5185AC"/>
<path d="M260.218 509.785C257.636 512.938 253.239 514.051 248.236 514.051C243.667 514.051 238.573 513.123 233.878 511.972C232.165 511.562 230.509 511.113 228.944 510.673V510.664C228.91 510.312 228.875 509.961 228.853 509.619C230.44 510.068 232.131 510.527 233.878 510.956C243.45 513.328 254.689 514.831 259.281 509.219C260.937 507.199 261.052 504.866 259.624 502.289C256.369 496.394 245.986 490.411 236.837 486.79C236.78 486.76 236.722 486.741 236.665 486.721C236.288 486.565 235.9 486.419 235.534 486.282C233.547 485.53 231.651 484.906 229.926 484.427C229.983 484.105 230.052 483.803 230.12 483.49C231.834 483.959 233.707 484.574 235.672 485.306C236.094 485.472 236.54 485.638 236.974 485.813C237.648 486.077 238.322 486.35 239.007 486.643C247.928 490.411 257.511 496.179 260.663 501.869C262.274 504.788 262.125 507.452 260.218 509.785Z" fill="#4E57A8"/>
<path d="M258.767 582.667C258.333 582.579 257.888 582.491 257.465 582.384C255.763 576.986 253.262 572.057 250.349 567.616C245.917 560.852 240.515 555.24 235.489 550.857C231.811 547.656 228.156 544.952 224.843 542.766C223.199 541.663 221.634 540.697 220.183 539.848C220.446 539.633 220.697 539.418 220.937 539.213C222.399 540.062 223.975 541.048 225.631 542.161C233.787 547.568 243.793 555.855 251.091 566.757C254.312 571.559 256.997 576.869 258.767 582.667Z" fill="#4E57A8"/>
<path d="M327.677 545.987C323.6 547.47 320.093 549.374 317.101 551.56C303.885 561.194 300.299 576.371 299.43 585.888C299.042 585.907 298.665 585.927 298.277 585.946C299.168 576.088 302.914 560.11 317.135 550.262C320.139 548.163 323.623 546.358 327.655 544.933C327.666 545.284 327.677 545.635 327.677 545.987Z" fill="#4E57A8"/>
<path d="M322.046 518.179C319.922 519.634 317.352 521.566 314.679 523.987C310.407 527.862 305.85 532.986 302.366 539.418C300.379 543.078 297.557 545.587 294.405 546.709V546.719L294.393 546.729C293.137 547.178 291.835 547.412 290.498 547.412C289.208 547.412 287.894 547.197 286.592 546.748C277.82 543.732 272.646 531.502 279.693 513.943C279.739 513.816 279.796 513.689 279.853 513.572C279.853 513.563 279.853 513.553 279.853 513.553V513.543C281.007 510.732 282.32 508.175 283.759 505.803C289.813 495.808 297.98 489.591 304.65 485.862C305.062 485.628 305.461 485.413 305.861 485.199C307.152 484.515 308.42 483.9 309.63 483.354C309.745 483.676 309.87 484.008 309.985 484.349C308.385 485.072 306.695 485.921 304.982 486.897C297.729 491.006 289.745 497.468 284.033 507.511C282.834 509.6 281.749 511.845 280.778 514.256C280.687 514.5 280.584 514.734 280.493 514.978C280.493 514.988 280.481 515.007 280.481 515.017C274.108 531.59 278.871 543.039 287.015 545.84C289.379 546.651 291.778 546.602 294.005 545.792C296.895 544.738 299.488 542.405 301.327 539.008C305.039 532.156 309.927 526.769 314.451 522.776C317.101 520.434 319.625 518.57 321.692 517.184C321.807 517.516 321.921 517.847 322.046 518.179Z" fill="#4E57A8"/>
<path d="M256.152 537.391C258.969 540.598 258.993 544.647 256.206 546.433C253.419 548.22 248.877 547.068 246.06 543.861C243.244 540.654 243.22 536.605 246.007 534.819C248.794 533.032 253.335 534.184 256.152 537.391Z" stroke="#4E57A8" stroke-miterlimit="10"/>
<path d="M289.014 584.687C288.831 580.412 285.588 577.054 281.807 577.152C281.715 577.152 281.613 577.162 281.521 577.181C277.866 577.445 275.079 580.939 275.262 585.107C275.262 585.175 275.273 585.244 275.285 585.312C275.605 585.341 275.913 585.38 276.233 585.4C276.301 585.409 276.37 585.409 276.438 585.419C276.438 585.409 276.438 585.409 276.438 585.4C276.416 585.292 276.404 585.175 276.404 585.068C276.256 581.603 278.357 578.665 281.201 578.196C281.418 578.157 281.635 578.138 281.853 578.128C281.898 578.128 281.955 578.118 282.001 578.118C283.543 578.118 284.982 578.85 286.033 580.041C287.095 581.232 287.792 582.882 287.872 584.716C287.883 584.951 287.883 585.175 287.872 585.4C287.872 585.624 287.849 585.849 287.815 586.073C288.192 586.083 288.569 586.093 288.957 586.093C288.991 585.868 289.014 585.634 289.014 585.4C289.026 585.292 289.026 585.185 289.026 585.068C289.026 584.941 289.014 584.814 289.014 584.687Z" fill="#4E57A8"/>
<path d="M282.683 477.775C282.852 481.782 280.167 485.118 276.685 485.225C273.204 485.332 270.244 482.171 270.075 478.163C269.906 474.157 272.592 470.82 276.073 470.714C279.555 470.606 282.514 473.768 282.683 477.775Z" stroke="#4E57A8" stroke-miterlimit="10"/>
<path d="M310.644 470.601C310.644 470.601 276.698 485.203 239.004 471.596L233.762 469.83C233.762 469.83 235.132 459.757 236.903 448.591C237.862 442.608 238.936 436.312 239.975 431.09C240.855 426.767 241.335 422.609 242.054 418.714C243.402 411.355 245.561 404.903 252.585 399.876C253.168 399.71 253.75 399.564 254.344 399.427C254.47 399.388 254.596 399.359 254.733 399.33C254.778 399.34 254.813 399.349 254.858 399.349C260.124 400.335 276.332 402.814 291.855 399.779C292.026 399.828 292.197 399.886 292.38 399.945C293.625 400.316 294.905 400.755 296.207 401.233C297.851 401.858 299.542 402.57 301.244 403.38C303.163 411.325 304.076 421.057 304.328 422.94L304.956 427.704L306.281 437.689L308.109 451.529L308.303 453.003L310.644 470.601Z" fill="#EE9B4F"/>
<path d="M243.402 436.83C243.402 436.83 240.958 441.681 236.903 448.591C228.611 462.773 218.271 481.77 203.64 489.149C181.892 500.139 171.717 486.257 170.723 482.03C170.392 480.625 170.997 478.019 171.945 475.179C174.298 468.141 178.239 461.563 183.356 455.697C189.695 448.445 199.644 437.122 207.388 428.65C207.331 429.011 227.514 406.66 252.586 399.876C253.168 399.71 253.751 399.564 254.345 399.427C254.471 399.388 254.596 399.359 254.733 399.33C254.745 399.32 254.768 399.32 254.79 399.31C254.813 399.32 254.836 399.33 254.859 399.349C255.019 399.447 255.156 399.574 255.282 399.71C259.919 404.981 243.402 436.83 243.402 436.83Z" fill="#EE9B4F"/>
<path d="M283.575 360.108C283.575 360.108 282.113 350.875 262.911 356.369C243.71 361.863 252.014 385.06 274.234 388.375L283.575 360.108Z" fill="#717171"/>
<path d="M278.333 400.829C272.154 401.815 264.878 398.018 264.878 398.018L266.431 375.393L277.751 380.967L279.327 389.126L280.389 394.631L281.04 398.038C281.657 400.78 281.84 400.273 278.333 400.829Z" fill="#FAB696"/>
<path d="M261.845 363.659C261.845 363.659 261.172 382.477 274.209 387.879C287.245 393.279 293.646 383.274 288.297 367.233C282.949 351.19 262.4 352.627 261.845 363.659Z" fill="#FAB696"/>
<path d="M265.968 373.412C265.968 373.412 259.835 370.206 259.392 375.629C258.95 381.051 269.619 380.385 270.93 379.496C272.241 378.606 265.968 373.412 265.968 373.412Z" fill="#FAB696"/>
<path d="M262.294 372.119L264.486 373.646C264.486 373.646 269.863 359.833 286.031 361.867L286.544 361.39C288.396 359.667 288.32 356.987 286.338 355.374C283.59 353.136 282.423 354.979 274.719 354.7C260.875 354.199 255.536 365.96 262.294 372.119Z" fill="#717171"/>
<path d="M280.39 394.631C273.606 394.143 269.628 384.262 269.628 384.262C274.267 387.895 278.3 389.01 279.328 389.127L280.39 394.631Z" fill="#2B305D"/>
<path d="M275.946 371.518C276.278 372.279 276.118 373.032 275.589 373.201C275.06 373.37 274.361 372.89 274.029 372.129C273.696 371.369 273.856 370.616 274.385 370.447C274.915 370.278 275.613 370.758 275.946 371.518Z" fill="#2B305D"/>
<path d="M285.41 368.777C285.743 369.537 285.583 370.291 285.054 370.459C284.525 370.628 283.826 370.148 283.494 369.388C283.161 368.627 283.321 367.874 283.85 367.705C284.38 367.536 285.079 368.016 285.41 368.777Z" fill="#2B305D"/>
<path d="M279.503 379.99C279.503 379.99 284.112 382.058 286.057 377.985L279.503 379.99Z" fill="white"/>
<path d="M257.502 369.933C261.628 366.408 261.628 360.693 257.502 357.168C253.377 353.643 246.689 353.643 242.564 357.168C238.439 360.693 238.439 366.408 242.564 369.933C246.689 373.458 253.377 373.458 257.502 369.933Z" fill="#717171"/>
<path d="M373.364 442.1C365.848 453.608 329.834 465.115 316.995 460.03C314.22 458.927 311.113 455.824 308.109 451.529C298.503 437.825 289.902 412.058 296.207 401.233C297.852 401.858 299.542 402.57 301.244 403.38C310.485 407.753 320.388 415.074 329.525 427.118C329.525 427.118 352.073 409.725 365.848 412.663C379.623 415.61 380.879 430.593 373.364 442.1Z" fill="#EE9B4F"/>
<path d="M292.381 399.945C284.111 401.985 269.799 404.112 255.282 399.711C254.973 399.623 254.654 399.525 254.345 399.427C254.471 399.388 254.596 399.359 254.734 399.33C254.745 399.32 254.768 399.32 254.791 399.31C258.092 398.559 261.461 398.1 264.876 398.022C264.876 398.022 276.538 395.25 291.856 399.779C292.027 399.828 292.198 399.886 292.381 399.945Z" fill="#FAB696"/>
<path d="M371.788 415.573C371.788 415.573 369.684 420.582 377.65 423.022C377.65 423.022 389.223 418.528 392.379 413.903C392.379 413.903 392.379 406.711 391.327 405.426C390.275 404.142 387.869 407.481 385.765 409.28C383.661 411.078 381.257 412.105 381.257 412.105C381.257 412.105 384.263 407.225 383.512 406.454C382.76 405.684 381.107 408.894 379.153 410.179C377.199 411.463 371.788 415.573 371.788 415.573Z" fill="#FAB696"/>
<path d="M176.092 489.34C176.092 489.34 183.908 489.092 186.223 493.05C186.223 493.05 186.368 500.842 185.065 502.573C183.763 504.305 183.039 501.584 182.75 498.615C182.75 498.615 180.435 500.966 179.855 504.057C179.276 507.149 179.855 510.859 178.697 510.241C177.539 509.622 174.645 508.757 173.632 505.047C172.618 501.337 173.922 492.68 176.092 489.34Z" fill="#FAB696"/>
<path d="M299.178 416.87C299.178 416.87 299.917 424.239 304.598 431.607C309.278 438.975 308.411 451.038 308.411 451.038" stroke="#C96357" stroke-miterlimit="10"/>
<path d="M245.193 430.679C245.193 430.679 239.477 436.619 236.708 448.751" stroke="#C96357" stroke-miterlimit="10"/>
<path d="M326.365 434.898C326.365 434.406 325.367 429.829 329.898 426.95" stroke="#C96357" stroke-miterlimit="10"/>
<path d="M265.968 373.412C265.968 373.412 261.674 370.414 258.851 373.447C256.028 376.48 259.899 381.924 266.916 380.89C273.933 379.857 265.968 373.412 265.968 373.412Z" fill="#FAB696"/>
<path d="M254.739 371.329C254.739 371.329 246.163 378.391 236.185 369.73" stroke="#2B305D" stroke-miterlimit="10"/>
<path d="M261.396 374.95C261.57 374.95 265.221 376.634 265.221 376.634L262.845 378.516" stroke="#E0786C" stroke-miterlimit="10" stroke-linecap="round"/>
<path d="M270.978 370.001C270.983 369.808 272.557 367.131 275.338 367.336" stroke="#2B305D" stroke-miterlimit="10" stroke-linecap="round"/>
<path d="M281.718 365.603C281.718 365.603 283.547 364.27 285.966 365.544" stroke="#2B305D" stroke-miterlimit="10" stroke-linecap="round"/>
<path d="M279.846 370.027L284.038 374.975C284.168 375.129 284.11 375.345 283.914 375.435L281.536 376.529" stroke="#E0786C" stroke-miterlimit="10" stroke-linecap="round"/>
<path d="M763 787.403V789.852C732.785 797.222 694.544 801.335 652.96 801.335C566.375 801.335 465.277 783.486 391.785 739.926C327.434 701.803 220.415 695.878 141.964 697.665C80.2066 699.061 27.2544 705.182 0 709.32V706.871C27.9258 702.635 81.5647 696.612 141.247 695.241C220.064 693.405 327.602 699.281 392.304 737.625C501.016 802.07 670.204 810.125 763 787.403Z" fill="#FAB696"/>
<path d="M82.2396 750.581C93.5945 750.581 102.799 744.9 102.799 737.892C102.799 730.884 93.5945 725.204 82.2396 725.204C70.8847 725.204 61.6797 730.884 61.6797 737.892C61.6797 744.9 70.8847 750.581 82.2396 750.581Z" stroke="#FAB696" stroke-miterlimit="10"/>
<path d="M757.409 736.484C759.386 736.484 761.259 736.659 762.999 737.008V734.487C761.229 734.163 759.356 733.988 757.409 733.988C745.815 733.988 736.729 740.203 736.729 748.141C736.729 756.078 745.815 762.293 757.409 762.293C759.356 762.293 761.229 762.119 762.999 761.794V759.273C761.259 759.623 759.386 759.797 757.409 759.797C745.918 759.797 738.204 753.757 738.204 748.141C738.204 742.525 745.918 736.484 757.409 736.484Z" fill="#FAB696"/>
<path d="M256.428 176.217C253.665 177.237 252.401 178.317 251.207 180.678C250.977 181.135 250.229 181.135 249.998 180.678C248.804 178.317 247.54 177.239 244.777 176.217C244.243 176.021 244.243 175.382 244.777 175.184C247.54 174.164 248.804 173.084 249.998 170.723C250.228 170.267 250.976 170.267 251.207 170.723C252.401 173.084 253.665 174.164 256.428 175.184C256.962 175.382 256.962 176.021 256.428 176.217Z" fill="white"/>
<path d="M685.344 170.789C682.581 171.809 681.319 172.889 680.124 175.25C679.893 175.706 679.146 175.706 678.915 175.25C677.721 172.889 676.457 171.809 673.694 170.789C673.16 170.592 673.16 169.953 673.694 169.755C676.457 168.735 677.719 167.655 678.915 165.294C679.145 164.838 679.892 164.838 680.124 165.294C681.317 167.655 682.581 168.735 685.344 169.755C685.878 169.952 685.878 170.591 685.344 170.789Z" fill="white"/>
<path d="M230.573 199.476C228.776 200.141 227.953 200.843 227.176 202.379C227.026 202.676 226.54 202.676 226.389 202.379C225.613 200.843 224.79 200.14 222.992 199.476C222.645 199.348 222.645 198.932 222.992 198.805C224.79 198.14 225.613 197.438 226.389 195.902C226.54 195.605 227.026 195.605 227.176 195.902C227.954 197.438 228.776 198.141 230.573 198.805C230.921 198.932 230.921 199.348 230.573 199.476Z" fill="white"/>
<path d="M463.854 190.527C463.854 191.602 462.834 192.474 461.576 192.474C460.318 192.474 459.298 191.602 459.298 190.527C459.298 189.452 460.318 188.58 461.576 188.58C462.834 188.58 463.854 189.452 463.854 190.527Z" fill="white"/>
<path d="M281.652 292.963C281.652 293.68 280.972 294.26 280.134 294.26C279.294 294.26 278.615 293.679 278.615 292.963C278.615 292.246 279.296 291.665 280.134 291.665C280.972 291.665 281.652 292.246 281.652 292.963Z" fill="white"/>
</g>
</svg>
