<svg width="136" height="73" viewBox="0 0 136 73" fill="none" xmlns="http://www.w3.org/2000/svg">
<path d="M66.464 17.31V24.672C66.464 25.356 66.62 25.884 66.932 26.256C67.256 26.628 67.742 26.814 68.39 26.814C69.038 26.814 69.524 26.628 69.848 26.256C70.184 25.872 70.352 25.344 70.352 24.672V17.31H73.88V24.672C73.88 25.836 73.634 26.832 73.142 27.66C72.65 28.476 71.978 29.094 71.126 29.514C70.286 29.922 69.35 30.126 68.318 30.126C67.286 30.126 66.362 29.922 65.546 29.514C64.742 29.094 64.106 28.476 63.638 27.66C63.182 26.844 62.954 25.848 62.954 24.672V17.31H66.464ZM82.4285 19.812C83.5925 19.812 84.5165 20.202 85.2005 20.982C85.8845 21.75 86.2265 22.794 86.2265 24.114V30H82.6985V24.582C82.6985 24.006 82.5485 23.556 82.2485 23.232C81.9485 22.896 81.5465 22.728 81.0425 22.728C80.5145 22.728 80.1005 22.896 79.8005 23.232C79.5005 23.556 79.3505 24.006 79.3505 24.582V30H75.8225V19.902H79.3505V21.342C79.6625 20.886 80.0825 20.52 80.6105 20.244C81.1385 19.956 81.7445 19.812 82.4285 19.812ZM89.9443 18.966C89.3203 18.966 88.8163 18.798 88.4323 18.462C88.0603 18.114 87.8743 17.682 87.8743 17.166C87.8743 16.638 88.0603 16.2 88.4323 15.852C88.8163 15.504 89.3203 15.33 89.9443 15.33C90.5563 15.33 91.0483 15.504 91.4203 15.852C91.8043 16.2 91.9963 16.638 91.9963 17.166C91.9963 17.682 91.8043 18.114 91.4203 18.462C91.0483 18.798 90.5563 18.966 89.9443 18.966ZM91.6903 19.902V30H88.1623V19.902H91.6903ZM93.1234 24.942C93.1234 23.898 93.3394 22.986 93.7714 22.206C94.2034 21.426 94.8034 20.826 95.5714 20.406C96.3514 19.986 97.2394 19.776 98.2354 19.776C99.5194 19.776 100.599 20.13 101.475 20.838C102.351 21.534 102.915 22.512 103.167 23.772H99.4234C99.2074 23.112 98.7874 22.782 98.1634 22.782C97.7194 22.782 97.3654 22.968 97.1014 23.34C96.8494 23.7 96.7234 24.234 96.7234 24.942C96.7234 25.65 96.8494 26.19 97.1014 26.562C97.3654 26.934 97.7194 27.12 98.1634 27.12C98.7994 27.12 99.2194 26.79 99.4234 26.13H103.167C102.915 27.378 102.351 28.356 101.475 29.064C100.599 29.772 99.5194 30.126 98.2354 30.126C97.2394 30.126 96.3514 29.916 95.5714 29.496C94.8034 29.076 94.2034 28.476 93.7714 27.696C93.3394 26.916 93.1234 25.998 93.1234 24.942ZM109.331 30.126C108.323 30.126 107.417 29.916 106.613 29.496C105.821 29.076 105.197 28.476 104.741 27.696C104.285 26.916 104.057 25.998 104.057 24.942C104.057 23.898 104.285 22.986 104.741 22.206C105.209 21.426 105.839 20.826 106.631 20.406C107.435 19.986 108.341 19.776 109.349 19.776C110.357 19.776 111.257 19.986 112.049 20.406C112.853 20.826 113.483 21.426 113.939 22.206C114.407 22.986 114.641 23.898 114.641 24.942C114.641 25.986 114.407 26.904 113.939 27.696C113.483 28.476 112.853 29.076 112.049 29.496C111.245 29.916 110.339 30.126 109.331 30.126ZM109.331 27.066C109.823 27.066 110.231 26.886 110.555 26.526C110.891 26.154 111.059 25.626 111.059 24.942C111.059 24.258 110.891 23.736 110.555 23.376C110.231 23.016 109.829 22.836 109.349 22.836C108.869 22.836 108.467 23.016 108.143 23.376C107.819 23.736 107.657 24.258 107.657 24.942C107.657 25.638 107.813 26.166 108.125 26.526C108.437 26.886 108.839 27.066 109.331 27.066ZM119.604 21.684C120 21.108 120.48 20.652 121.044 20.316C121.608 19.98 122.214 19.812 122.862 19.812V23.574H121.872C121.104 23.574 120.534 23.724 120.162 24.024C119.79 24.324 119.604 24.846 119.604 25.59V30H116.076V19.902H119.604V21.684ZM130.733 19.812C131.897 19.812 132.821 20.202 133.505 20.982C134.189 21.75 134.531 22.794 134.531 24.114V30H131.003V24.582C131.003 24.006 130.853 23.556 130.553 23.232C130.253 22.896 129.851 22.728 129.347 22.728C128.819 22.728 128.405 22.896 128.105 23.232C127.805 23.556 127.655 24.006 127.655 24.582V30H124.127V19.902H127.655V21.342C127.967 20.886 128.387 20.52 128.915 20.244C129.443 19.956 130.049 19.812 130.733 19.812ZM73.034 41.54C73.034 42.308 72.854 43.01 72.494 43.646C72.146 44.27 71.612 44.774 70.892 45.158C70.184 45.53 69.314 45.716 68.282 45.716H66.536V50H63.008V37.31H68.282C69.302 37.31 70.166 37.49 70.874 37.85C71.594 38.21 72.134 38.708 72.494 39.344C72.854 39.98 73.034 40.712 73.034 41.54ZM67.94 42.908C68.936 42.908 69.434 42.452 69.434 41.54C69.434 40.616 68.936 40.154 67.94 40.154H66.536V42.908H67.94ZM79.1494 50.126C78.1414 50.126 77.2354 49.916 76.4314 49.496C75.6394 49.076 75.0154 48.476 74.5594 47.696C74.1034 46.916 73.8754 45.998 73.8754 44.942C73.8754 43.898 74.1034 42.986 74.5594 42.206C75.0274 41.426 75.6574 40.826 76.4494 40.406C77.2534 39.986 78.1594 39.776 79.1674 39.776C80.1754 39.776 81.0754 39.986 81.8674 40.406C82.6714 40.826 83.3014 41.426 83.7574 42.206C84.2254 42.986 84.4594 43.898 84.4594 44.942C84.4594 45.986 84.2254 46.904 83.7574 47.696C83.3014 48.476 82.6714 49.076 81.8674 49.496C81.0634 49.916 80.1574 50.126 79.1494 50.126ZM79.1494 47.066C79.6414 47.066 80.0494 46.886 80.3734 46.526C80.7094 46.154 80.8774 45.626 80.8774 44.942C80.8774 44.258 80.7094 43.736 80.3734 43.376C80.0494 43.016 79.6474 42.836 79.1674 42.836C78.6874 42.836 78.2854 43.016 77.9614 43.376C77.6374 43.736 77.4754 44.258 77.4754 44.942C77.4754 45.638 77.6314 46.166 77.9434 46.526C78.2554 46.886 78.6574 47.066 79.1494 47.066ZM90.1967 50.126C89.2847 50.126 88.4687 49.976 87.7487 49.676C87.0407 49.364 86.4767 48.944 86.0567 48.416C85.6487 47.876 85.4207 47.27 85.3727 46.598H88.7927C88.8407 46.922 88.9907 47.174 89.2427 47.354C89.4947 47.534 89.8067 47.624 90.1787 47.624C90.4667 47.624 90.6947 47.564 90.8627 47.444C91.0307 47.324 91.1147 47.168 91.1147 46.976C91.1147 46.724 90.9767 46.538 90.7007 46.418C90.4247 46.298 89.9687 46.166 89.3327 46.022C88.6127 45.878 88.0127 45.716 87.5327 45.536C87.0527 45.356 86.6327 45.062 86.2727 44.654C85.9247 44.246 85.7507 43.694 85.7507 42.998C85.7507 42.398 85.9127 41.858 86.2367 41.378C86.5607 40.886 87.0347 40.496 87.6587 40.208C88.2947 39.92 89.0567 39.776 89.9447 39.776C91.2647 39.776 92.3027 40.1 93.0587 40.748C93.8147 41.396 94.2527 42.248 94.3727 43.304H91.1867C91.1267 42.98 90.9827 42.734 90.7547 42.566C90.5387 42.386 90.2447 42.296 89.8727 42.296C89.5847 42.296 89.3627 42.35 89.2067 42.458C89.0627 42.566 88.9907 42.716 88.9907 42.908C88.9907 43.148 89.1287 43.334 89.4047 43.466C89.6807 43.586 90.1247 43.712 90.7367 43.844C91.4687 44 92.0747 44.174 92.5547 44.366C93.0467 44.558 93.4727 44.87 93.8327 45.302C94.2047 45.722 94.3907 46.298 94.3907 47.03C94.3907 47.618 94.2167 48.146 93.8687 48.614C93.5327 49.082 93.0467 49.454 92.4107 49.73C91.7867 49.994 91.0487 50.126 90.1967 50.126ZM102.083 46.994V50H100.553C97.9732 50 96.6832 48.722 96.6832 46.166V42.836H95.4412V39.902H96.6832V37.454H100.229V39.902H102.065V42.836H100.229V46.22C100.229 46.496 100.289 46.694 100.409 46.814C100.541 46.934 100.757 46.994 101.057 46.994H102.083Z" fill="#04273A"/>
<path d="M105.411 50.144C104.787 50.144 104.283 49.976 103.899 49.64C103.527 49.292 103.341 48.854 103.341 48.326C103.341 47.798 103.527 47.36 103.899 47.012C104.283 46.664 104.787 46.49 105.411 46.49C106.023 46.49 106.515 46.664 106.887 47.012C107.271 47.36 107.463 47.798 107.463 48.326C107.463 48.842 107.271 49.274 106.887 49.622C106.515 49.97 106.023 50.144 105.411 50.144Z" fill="#FF8E27"/>
<mask id="mask0_1383_1605" style="mask-type:alpha" maskUnits="userSpaceOnUse" x="0" y="-1" width="49" height="74">
<path d="M1 20L29.3417 0L38.671 5.22L48.0002 14.1588L36.1779 62.4593C34.7654 68.2301 29.3427 72.0986 23.4263 71.5562L16.4478 70.9164C7.69712 70.114 1 62.7748 1 53.9874V20Z" fill="#F2F2F5" stroke="#F2F2F5"/>
</mask>
<g mask="url(#mask0_1383_1605)">
<path d="M28.014 4.11955L28.0187 2.18007L26.436 3.30156L-0.170503 22.1546L0.40748 22.9704L-0.170505 22.1546C-0.698483 22.5287 -1.01295 23.135 -1.01453 23.782L-1.09131 55.1832C-1.0945 56.4886 -0.590066 57.7439 0.315399 58.6838L1.03321 57.9924L0.315399 58.6838C6.18542 64.7776 15.5932 65.7548 22.5937 60.998L22.0319 60.1709L22.5937 60.998L23.0183 60.7095C26.0627 58.6408 27.8891 55.2021 27.8981 51.5219L28.014 4.11955Z" fill="#4C9AFF" stroke="#F2F2F5" stroke-width="2"/>
<path d="M37.3569 8.71631L37.3896 7.19853L35.9822 7.76816L0.0153245 22.3256L0.39025 23.2525L0.0153233 22.3256C-0.738601 22.6307 -1.23283 23.3619 -1.23482 24.1752L-1.31173 55.6282C-1.31296 56.1328 -1.2472 56.6353 -1.11618 57.1225C1.19237 65.7074 8.86558 71.7551 17.7529 71.9944L20.9435 72.0803C29.2359 72.3035 36.1287 65.7367 36.3073 57.4431L37.3569 8.71631Z" fill="url(#paint0_linear_1383_1605)" stroke="#F2F2F5" stroke-width="2"/>
<mask id="mask1_1383_1605" style="mask-type:alpha" maskUnits="userSpaceOnUse" x="-1" y="14" width="50" height="59">
<path d="M46.8337 17.2926L47.1814 15.8422L45.7025 16.0757L1.77078 23.0129C0.797109 23.1667 0.0801387 24.0028 0.0801386 24.9845L0.0801386 53.6544C0.0801386 54.0428 0.119575 54.4302 0.197846 54.8106C1.56612 61.4611 6.17433 66.9934 12.4846 69.5612L15.2026 70.6673C24.2219 74.3375 34.4054 69.1305 36.6684 59.6915L46.8337 17.2926Z" fill="url(#paint1_linear_1383_1605)" stroke="#04273A" stroke-width="2"/>
</mask>
<g mask="url(#mask1_1383_1605)">
<path d="M46.8337 17.2926L47.1814 15.8422L45.7025 16.0757L1.77078 23.0129C0.797109 23.1667 0.0801387 24.0028 0.0801386 24.9845L0.0801386 53.6544C0.0801386 54.0428 0.119575 54.4302 0.197846 54.8106C1.56612 61.4611 6.17433 66.9934 12.4846 69.5612L15.2026 70.6673C24.2219 74.3375 34.4054 69.1305 36.6684 59.6915L46.8337 17.2926Z" fill="url(#paint2_linear_1383_1605)" stroke="#F2F2F5" stroke-width="2"/>
<path d="M18.1299 37.6133L28.4839 52.403C29.112 53.3001 28.8499 54.4968 27.8985 55.076L24.0115 57.4426C23.0899 58.0036 21.9141 58.0594 20.9256 57.5889L16.2398 55.3586L28.8187 68.8227L25.9557 71.3056L6.1086 71.3056C-2.16581 59.4864 1.28737 43.7189 13.8215 36.0878L19.7652 32.4691L18.1299 37.6133Z" fill="#F2F2F5"/>
<path d="M24.245 35.9614C24.6936 36.303 25.047 36.7457 25.2697 37.2448C25.4229 37.5872 25.6859 37.8798 26.0192 38.0784L26.4335 38.329C26.9077 38.1492 27.3559 37.9179 27.7696 37.6394C28.4752 37.1793 29.0618 36.5766 29.4912 35.8704C29.2368 35.7487 29.0085 35.5796 28.8204 35.3739C28.6324 35.1682 28.4888 34.9302 28.3985 34.675C28.3543 34.5381 28.2613 34.4176 28.1361 34.335L27.8092 34.1315C26.7737 34.2124 25.7981 34.5603 24.9857 35.1385C24.673 35.3491 24.3807 35.585 24.1117 35.8436L24.245 35.9614Z" fill="#F2F2F5"/>
<path d="M29.8261 34.0833C29.857 34.1716 29.9086 34.2533 29.9767 34.3219C30.0448 34.3905 30.1277 34.4441 30.2187 34.4786L30.4508 34.5689C30.5508 34.5196 30.646 34.4627 30.7357 34.3985C32.2796 33.3454 32.7165 32.239 32.5786 32.0604C32.4408 31.8819 31.1771 31.917 29.6301 32.9554C29.5231 33.0272 29.3832 33.1211 29.2351 33.2205C29.5055 33.458 29.7095 33.7558 29.8261 34.0833Z" fill="#F2F2F5"/>
<path d="M21.1916 39.869C21.6051 40.4286 22.129 40.9101 22.7372 41.2897C22.9595 41.1647 23.1718 41.0384 23.3759 40.9014C23.58 40.7644 23.787 40.6254 23.9903 40.4526C24.483 40.0666 24.937 39.6402 25.3465 39.179L25.2717 39.1403C24.6795 38.8111 24.2245 38.3113 23.9738 37.7147C23.8662 37.4444 23.683 37.207 23.4422 37.0261L22.9728 36.6913C22.454 36.7956 21.953 36.9726 21.4876 37.216C21.267 37.3341 21.0531 37.4628 20.8469 37.6017C20.6428 37.7387 20.4387 37.8757 20.2493 38.0432C20.4377 38.7036 20.7571 39.3224 21.1916 39.869Z" fill="#F2F2F5"/>
</g>
</g>
<defs>
<linearGradient id="paint0_linear_1383_1605" x1="16.4267" y1="11.5237" x2="7.09253" y2="40.575" gradientUnits="userSpaceOnUse">
<stop stop-color="#FFE600"/>
<stop offset="1" stop-color="#FF8E27"/>
</linearGradient>
<linearGradient id="paint1_linear_1383_1605" x1="-16.617" y1="33.9138" x2="48.1536" y2="46.041" gradientUnits="userSpaceOnUse">
<stop stop-color="#FF8E27"/>
<stop offset="1" stop-color="#FDBC11"/>
</linearGradient>
<linearGradient id="paint2_linear_1383_1605" x1="-16.617" y1="33.9138" x2="48.1536" y2="46.041" gradientUnits="userSpaceOnUse">
<stop stop-color="#FF8E27"/>
<stop offset="1" stop-color="#FDBC11"/>
</linearGradient>
</defs>
</svg>
