<svg width="89" height="24" viewBox="0 0 89 24" fill="none" xmlns="http://www.w3.org/2000/svg">
<g clip-path="url(#clip0_165_1816)">
<path d="M22.243 4.22476V6.3312L19.0129 7.52146L22.243 8.75426V10.8617L19.0129 12.0519L22.243 13.2847V15.3912L19.0129 16.5814L22.243 17.8152V19.9217L11.1744 24L0 20.0988V17.8152L3.08953 16.6467L0 15.5683V13.2847L3.08953 12.1172L0 11.0378V8.75426L3.08953 7.58676L0 6.50831V4.22476L11.1744 0L22.243 4.22476Z" fill="white"/>
<path d="M25.52 5.14502L27.4268 7.91535L29.3346 5.14502H30.5223L28.0052 8.70688L30.4455 12.1698H29.2578L27.4248 9.49247L25.5958 12.1639H24.3991L26.8484 8.70094L24.3203 5.14502H25.52Z" fill="black"/>
<path d="M36.0204 11.1873V12.1698H31.3003V5.14502H35.9276V6.12651H32.3843V8.11323H35.4519V9.03338H32.3843V11.1834L36.0204 11.1873Z" fill="black"/>
<path d="M38.2223 7.21683V12.1639H37.1343V5.14502H37.9859L41.9202 10.2108V5.14997H43.0172V12.1639H42.1196L38.2223 7.21683Z" fill="black"/>
<path d="M47.419 12.2131C46.9545 12.2203 46.495 12.1186 46.0776 11.9163C45.6811 11.7197 45.3277 11.4473 45.0375 11.1149C44.7441 10.7785 44.5162 10.391 44.3653 9.97212C44.2082 9.55087 44.1275 9.10536 44.127 8.65621C44.1252 8.19443 44.2104 7.73638 44.3783 7.30567C44.5409 6.8882 44.7773 6.50289 45.0764 6.16786C45.3691 5.83994 45.7247 5.5732 46.1225 5.38326C46.5337 5.18478 46.9856 5.0832 47.4429 5.08644C47.9106 5.08021 48.3728 5.18754 48.7892 5.39909C49.1853 5.60103 49.5373 5.8784 49.8254 6.21535C50.2614 6.73432 50.5514 7.35845 50.6659 8.02446C50.7805 8.69046 50.7155 9.37468 50.4776 10.0077C50.3207 10.4252 50.0859 10.8095 49.7855 11.1406C49.49 11.4679 49.133 11.7348 48.7343 11.9262C48.3241 12.1214 47.8739 12.2196 47.419 12.2131ZM45.231 8.65126C45.2302 8.97741 45.2827 9.30153 45.3865 9.61099C45.4825 9.90859 45.6314 10.1867 45.8263 10.4322C46.0161 10.6684 46.254 10.8623 46.5244 11.0011C46.8048 11.1457 47.117 11.2188 47.4329 11.2138C47.7557 11.2206 48.0746 11.1439 48.3584 10.9912C48.6249 10.8422 48.8575 10.6401 49.0415 10.3976C49.2299 10.1502 49.3736 9.87239 49.4663 9.57636C49.5629 9.27565 49.6121 8.96193 49.6119 8.64632C49.6138 8.31847 49.5612 7.99256 49.4564 7.68165C49.3601 7.3872 49.2111 7.11238 49.0166 6.87034C48.8284 6.63774 48.5942 6.44581 48.3285 6.30637C48.0522 6.16147 47.7434 6.08829 47.4309 6.09365C47.1074 6.08798 46.7877 6.16462 46.5025 6.31627C46.2344 6.46074 45.9986 6.65764 45.8094 6.89507C45.6167 7.14143 45.4699 7.41984 45.3756 7.71727C45.2783 8.01916 45.2295 8.33434 45.231 8.65126Z" fill="black"/>
<path d="M52.9279 7.21683V12.1639H51.8398V5.14502H52.6915L56.6257 10.2108V5.14997H57.7227V12.1639H56.8252L52.9279 7.21683Z" fill="black"/>
<path d="M63.3354 6.79127C63.2513 6.70299 63.1568 6.62494 63.0542 6.55876C62.9192 6.4692 62.7768 6.39141 62.6283 6.32625C62.4538 6.25055 62.2725 6.19126 62.0868 6.14914C61.8881 6.10253 61.6846 6.07895 61.4805 6.0789C61.0231 6.0789 60.686 6.16464 60.4692 6.33614C60.3625 6.42114 60.2774 6.52998 60.2211 6.65378C60.1648 6.77758 60.1387 6.91283 60.1451 7.04851C60.1384 7.19514 60.173 7.34073 60.2449 7.46901C60.3264 7.58806 60.4364 7.68526 60.565 7.75198C60.7328 7.84517 60.9113 7.91824 61.0965 7.96965C61.3099 8.03495 61.5583 8.10322 61.8425 8.16753C62.1624 8.2447 62.4774 8.34051 62.7859 8.45446C63.0419 8.54579 63.2821 8.67596 63.4979 8.84032C63.6894 8.9897 63.8433 9.18104 63.9477 9.39934C64.0614 9.65281 64.1163 9.92838 64.1083 10.2057C64.117 10.5238 64.0486 10.8394 63.9088 11.1259C63.7829 11.3761 63.5969 11.5919 63.3673 11.7541C63.1263 11.9216 62.8556 12.0424 62.5695 12.1103C62.2497 12.1881 61.9214 12.2263 61.5922 12.2241C61.0752 12.2278 60.561 12.1472 60.0703 11.9856C59.5927 11.8292 59.1464 11.5908 58.752 11.2812L59.2506 10.3314C59.3613 10.4391 59.483 10.5353 59.6136 10.6183C59.7879 10.7344 59.9728 10.8338 60.1661 10.9151C60.3873 11.0072 60.6149 11.0832 60.8472 11.1427C61.097 11.2071 61.354 11.2403 61.6121 11.2416C62.0389 11.2416 62.369 11.1658 62.6024 11.014C62.7152 10.9424 62.807 10.8425 62.8683 10.7243C62.9296 10.6061 62.9583 10.474 62.9514 10.3413C62.9574 10.1828 62.9116 10.0266 62.8208 9.89602C62.7222 9.76291 62.5952 9.6531 62.4488 9.57446C62.2579 9.47427 62.0575 9.39308 61.8505 9.33206C61.6171 9.26016 61.3532 9.18431 61.0586 9.1045C60.7537 9.02355 60.454 8.92443 60.1611 8.80767C59.93 8.72064 59.7155 8.59517 59.5268 8.43665C59.3608 8.29902 59.2279 8.12627 59.1379 7.93106C59.0458 7.70641 59.0023 7.46505 59.0102 7.22265C59.006 6.90653 59.0742 6.5936 59.2097 6.30745C59.3338 6.04928 59.5136 5.8213 59.7363 5.6396C59.9706 5.45267 60.2396 5.31317 60.5281 5.229C60.849 5.13411 61.1825 5.08742 61.5174 5.09048C61.9567 5.08648 62.393 5.16365 62.8038 5.31804C63.1741 5.45717 63.5228 5.647 63.84 5.882L63.3354 6.79127Z" fill="black"/>
<path d="M70.1797 6.11845H67.8949V12.1637H66.8059V6.11845H64.5122V5.13696H70.1847L70.1797 6.11845Z" fill="black"/>
<path d="M72.4454 5.14502H73.3987L76.1093 12.1698H74.9625L74.2365 10.2602H71.5837L70.8667 12.1698H69.7148L72.4454 5.14502ZM74.028 9.43805L72.9191 6.42036L71.7772 9.43805H74.028Z" fill="black"/>
<path d="M76.27 8.60179C76.2703 8.17188 76.3448 7.7452 76.4904 7.34029C76.6352 6.92712 76.8568 6.54454 77.1436 6.21237C77.4353 5.87606 77.7925 5.60177 78.1938 5.40601C78.6318 5.19609 79.1135 5.09168 79.5999 5.10127C80.1663 5.08528 80.7252 5.2331 81.2085 5.52671C81.6395 5.79519 81.9874 6.17663 82.2137 6.62891L81.3611 7.22255C81.275 7.02694 81.1574 6.8465 81.013 6.68828C80.8853 6.54896 80.735 6.4319 80.5682 6.34198C80.4113 6.25847 80.2435 6.19688 80.0696 6.15894C79.904 6.12407 79.7353 6.10584 79.566 6.10453C79.2356 6.09732 78.9088 6.17395 78.6166 6.32714C78.3489 6.47412 78.1162 6.6766 77.9345 6.92079C77.7485 7.16828 77.6077 7.44623 77.5186 7.74199C77.4261 8.03673 77.3787 8.34356 77.378 8.65225C77.3762 8.98631 77.4318 9.31824 77.5425 9.63374C77.6452 9.93249 77.8009 10.2106 78.0023 10.4549C78.1941 10.6892 78.4315 10.8826 78.7004 11.0238C78.9751 11.1663 79.281 11.2393 79.5909 11.2366C79.7654 11.2355 79.9392 11.214 80.1085 11.1723C80.289 11.1282 80.462 11.0582 80.6221 10.9645C80.7902 10.8662 80.9434 10.7446 81.0769 10.6034C81.2214 10.4497 81.3378 10.2723 81.4209 10.079L82.3184 10.6034C82.2098 10.8619 82.0516 11.0971 81.8527 11.2959C81.6529 11.4972 81.4248 11.6688 81.1756 11.8055C80.924 11.9437 80.656 12.0501 80.3778 12.1221C80.1077 12.1933 79.8295 12.2299 79.55 12.2309C79.0883 12.2358 78.6326 12.127 78.2237 11.9143C77.8288 11.7063 77.4775 11.4256 77.1885 11.0872C76.8959 10.7435 76.6667 10.3513 76.5114 9.92858C76.3508 9.50441 76.269 9.05488 76.27 8.60179Z" fill="black"/>
<path d="M83.3267 12.1639V5.14997H84.4147V8.76031L87.6488 5.14502H88.8455L86.135 8.24285L89.0041 12.1609H87.7904L85.4658 8.92949L84.4107 10.0475V12.1698L83.3267 12.1639Z" fill="black"/>
<path opacity="0.8" d="M0 17.8153L11.1744 13.5906L22.243 17.8153L11.1744 21.7878L0 17.8153Z" fill="#50B748"/>
<path d="M2.90005 18.8453L11.1744 15.608L19.9553 18.6346L22.243 17.8153L11.1744 13.5906L0 17.8153L2.90005 18.8453Z" fill="#2DB24A"/>
<path opacity="0.55" d="M0 17.8152V20.0987L11.1744 24L22.243 19.9216V17.8152L11.1744 21.7876L0 17.8152Z" fill="#7DC257"/>
<path opacity="0.8" d="M0 13.2848L11.1744 9.06006L22.243 13.2848L11.1744 17.2573L0 13.2848Z" fill="#FFCB04"/>
<path d="M2.90005 14.3148L11.1744 11.0784L19.9553 14.105L22.243 13.2848L11.1744 9.06006L0 13.2848L2.90005 14.3148Z" fill="#FDBC11"/>
<path opacity="0.55" d="M0 13.2847V15.5682L11.1744 19.4694L22.243 15.3911V13.2847L11.1744 17.2571L0 13.2847Z" fill="#FFD451"/>
<path opacity="0.8" d="M0 8.75429L11.1744 4.53052L22.243 8.75429L11.1744 12.7268L0 8.75429Z" fill="#4C9AFF"/>
<path d="M2.90005 9.78426L11.1744 6.54791L19.9553 9.5745L22.243 8.75429L11.1744 4.53052L0 8.75429L2.90005 9.78426Z" fill="#4C9AFF"/>
<path opacity="0.55" d="M0 8.75415V11.0377L11.1744 14.9399L22.243 10.8616V8.75415L11.1744 12.7266L0 8.75415Z" fill="#4C9AFF"/>
<path opacity="0.8" d="M0 4.22476L11.1744 0L22.243 4.22476L11.1744 8.19623L0 4.22476Z" fill="#EE4526"/>
<path d="M2.90005 5.25473L11.1744 2.0174L19.9553 5.04399L22.243 4.22476L11.1744 0L0 4.22476L2.90005 5.25473Z" fill="#EE4526"/>
<path opacity="0.55" d="M0 4.22485V6.5084L11.1744 10.4096L22.243 6.3313V4.22485L11.1744 8.19633L0 4.22485Z" fill="#EE4526"/>
<path d="M29.9388 14.1484H30.6648L32.3771 19.0955H31.696L30.8154 16.3251C30.6349 15.7711 30.4713 15.2289 30.3098 14.659H30.2789C30.1223 15.2318 29.9597 15.7711 29.7802 16.3251L28.8837 19.0955H28.2295L29.9388 14.1484ZM29.128 17.084H31.4556V17.5856H29.128V17.084Z" fill="black"/>
<path d="M34.2319 18.4435L34.6169 18.0121C34.7977 18.2001 35.014 18.351 35.2536 18.4561C35.4931 18.5612 35.7512 18.6184 36.013 18.6245C36.6762 18.6245 37.0692 18.3 37.0692 17.8192C37.0692 17.3146 36.7032 17.1533 36.2265 16.9505L35.5024 16.6358C35.0317 16.438 34.4783 16.0907 34.4783 15.3635C34.4783 14.6085 35.1514 14.0515 36.0739 14.0515C36.3504 14.0512 36.6243 14.1053 36.8797 14.2106C37.1351 14.3159 37.3669 14.4703 37.5618 14.6649L37.2217 15.0666C36.9157 14.768 36.5032 14.6012 36.0739 14.6026C35.5074 14.6026 35.1315 14.8826 35.1315 15.3249C35.1315 15.8008 35.5733 15.9789 35.9692 16.1431L36.6902 16.4479C37.2756 16.6932 37.7313 17.0346 37.7313 17.7697C37.7313 18.5513 37.0721 19.1747 36.0091 19.1747C35.6784 19.1784 35.3504 19.1156 35.0449 18.9899C34.7394 18.8642 34.4629 18.6783 34.2319 18.4435Z" fill="black"/>
<path d="M38.5775 17.9548V15.9295H38.021V15.4615L38.6054 15.4249L38.6812 14.3989H39.2107V15.4249H40.2259V15.9295H39.2137V17.9657C39.2137 18.412 39.3613 18.6722 39.7931 18.6722C39.9398 18.6642 40.084 18.6307 40.219 18.5732L40.3416 19.0412C40.1174 19.1217 39.8819 19.1671 39.6435 19.1758C38.8477 19.1807 38.5775 18.6831 38.5775 17.9548Z" fill="black"/>
<path d="M40.6787 18.1357C40.6787 17.3382 41.3828 16.9395 42.9784 16.7703C42.9784 16.2993 42.8168 15.8452 42.2055 15.8452C41.7727 15.8452 41.3818 16.0431 41.0896 16.241L40.8413 15.8165C41.1853 15.5959 41.7109 15.3376 42.3122 15.3376C43.2257 15.3376 43.6087 15.9313 43.6087 16.8445V19.0954H43.0851L43.0323 18.6591H43.0113C42.6513 18.948 42.2384 19.1864 41.7727 19.1864C41.1494 19.1805 40.6787 18.7986 40.6787 18.1357ZM42.9784 18.1931V17.176C41.7238 17.3244 41.3 17.6232 41.3 18.0931C41.3 18.5087 41.5882 18.6779 41.9562 18.6779C42.3242 18.6779 42.6164 18.5047 42.9784 18.197V18.1931Z" fill="black"/>
<path d="M44.5151 17.2601C44.5151 16.0392 45.3588 15.3337 46.3182 15.3337C46.7243 15.3335 47.115 15.4875 47.4102 15.7641L47.0861 16.1737C46.8677 15.9818 46.6353 15.8502 46.3431 15.8502C45.665 15.8502 45.1713 16.4221 45.1713 17.2601C45.1713 18.0981 45.6411 18.6611 46.3292 18.6611C46.6573 18.6492 46.9699 18.5195 47.2088 18.296L47.483 18.7116C47.1505 19.0085 46.7197 19.174 46.2723 19.1766C45.2761 19.1805 44.5151 18.4731 44.5151 17.2601Z" fill="black"/>
<path d="M48.3066 13.72H48.9279V17.3541H48.9489L50.5445 15.4247H51.2426L49.989 16.896L51.4151 19.0954H50.722L49.63 17.3362L48.9319 18.1347V19.0954H48.3106L48.3066 13.72Z" fill="black"/>
<path d="M53.7197 14.1484H54.363V19.0955H53.7197V14.1484Z" fill="black"/>
<path d="M55.6846 15.4247H56.2081L56.263 15.9531H56.2829C56.6449 15.6098 57.0249 15.3357 57.5425 15.3357C58.3323 15.3357 58.6863 15.8304 58.6863 16.7674V19.0954H58.0561V16.8554C58.0561 16.1727 57.8446 15.8818 57.349 15.8818C56.9661 15.8818 56.7008 16.0728 56.3248 16.4438V19.0954H55.6945L55.6846 15.4247Z" fill="black"/>
<path d="M59.8989 15.4248H60.4225L60.4753 15.9531H60.4963C60.8563 15.6098 61.2383 15.3337 61.7528 15.3337C62.5417 15.3337 62.8957 15.8284 62.8957 16.7654V19.0955H62.2644V16.8554C62.2644 16.1728 62.053 15.8819 61.5574 15.8819C61.1754 15.8819 60.9102 16.0728 60.5342 16.4439V19.0955H59.9029L59.8989 15.4248Z" fill="black"/>
<path d="M63.834 17.2601C63.834 16.0392 64.6517 15.3337 65.5692 15.3337C66.4867 15.3337 67.3045 16.0392 67.3045 17.2601C67.3045 18.481 66.4877 19.1805 65.5692 19.1805C64.6507 19.1805 63.834 18.4731 63.834 17.2601ZM66.6493 17.2601C66.6493 16.4221 66.2125 15.8502 65.5682 15.8502C64.924 15.8502 64.4862 16.4221 64.4862 17.2601C64.4862 18.0981 64.923 18.6611 65.5682 18.6611C66.2135 18.6611 66.6493 18.0991 66.6493 17.2601Z" fill="black"/>
<path d="M67.7144 15.4248H68.3676L69.0746 17.5026C69.1863 17.8607 69.309 18.2327 69.4207 18.582H69.4516C69.5633 18.2327 69.685 17.8607 69.7966 17.5026L70.5047 15.4248H71.126L69.8086 19.0955H69.0716L67.7144 15.4248Z" fill="black"/>
<path d="M71.4683 18.1357C71.4683 17.3382 72.1723 16.9395 73.767 16.7703C73.767 16.2994 73.6064 15.8452 72.9951 15.8452C72.5623 15.8452 72.1713 16.0431 71.8791 16.241L71.6308 15.8165C71.9739 15.5919 72.5014 15.3357 73.0998 15.3357C74.0143 15.3357 74.3962 15.9293 74.3962 16.8426V19.0954H73.8777L73.8248 18.6591H73.8029C73.4428 18.948 73.03 19.1865 72.5643 19.1865C71.938 19.1805 71.4683 18.7986 71.4683 18.1357ZM73.767 18.1931V17.176C72.5134 17.3244 72.0886 17.6232 72.0886 18.0932C72.0886 18.5087 72.3768 18.6779 72.7448 18.6779C73.1128 18.6779 73.405 18.5048 73.767 18.1971V18.1931Z" fill="black"/>
<path d="M75.5848 17.9548V15.9295H75.0283V15.4615L75.6137 15.4249L75.6905 14.3989H76.2191V15.4249H77.2333V15.9295H76.2191V17.9657C76.2191 18.412 76.3667 18.6722 76.7985 18.6722C76.9452 18.6647 77.0895 18.6312 77.2243 18.5732L77.347 19.0412C77.1227 19.1217 76.8872 19.1671 76.6489 19.1758C75.8551 19.1807 75.5848 18.6831 75.5848 17.9548Z" fill="black"/>
<path d="M77.6958 17.2601C77.6958 16.0392 78.5066 15.3347 79.4261 15.3347C80.3455 15.3347 81.1623 16.0402 81.1623 17.2611C81.1623 18.482 80.3445 19.1805 79.4261 19.1805C78.5076 19.1805 77.6958 18.4731 77.6958 17.2601ZM80.5111 17.2601C80.5111 16.4221 80.0743 15.8502 79.429 15.8502C78.7838 15.8502 78.347 16.4221 78.347 17.2601C78.347 18.0981 78.7838 18.6611 79.429 18.6611C80.0743 18.6611 80.5071 18.0991 80.5071 17.2601H80.5111Z" fill="black"/>
<path d="M82.145 15.4249H82.6736L82.7274 16.0918H82.7484C83.0106 15.6277 83.3926 15.3339 83.8144 15.3339C83.9516 15.3278 84.0883 15.3539 84.2133 15.4101L84.0957 15.9533C83.9796 15.913 83.8576 15.8926 83.7347 15.8929C83.4185 15.8929 83.0366 16.1165 82.7873 16.7359V19.0956H82.157L82.145 15.4249Z" fill="black"/>
</g>
<defs>
<clipPath id="clip0_165_1816">
<rect width="89" height="24" fill="white"/>
</clipPath>
</defs>
</svg>
