<svg width="133" height="70" viewBox="0 0 133 70" fill="none" xmlns="http://www.w3.org/2000/svg">
<path d="M29.8504 4.05174L29.8551 2.03019L28.2454 3.25323L6.91151 19.4636C6.41506 19.8408 6.12294 20.428 6.12152 21.0515L6.05949 48.2549C6.05713 49.289 6.43835 50.2872 7.1294 51.0565C11.8978 56.3647 19.9086 57.2057 25.6756 53.0037L26.05 52.7308C28.3729 51.0383 29.7495 48.3396 29.756 45.4656L29.8504 4.05174Z" fill="#4C9AFF" stroke="#04273A" stroke-width="2"/>
<path d="M37.3619 8.0158L37.3932 6.45808L35.964 7.07839L7.14855 19.5848L7.50257 20.4005L7.14855 19.5848C6.41922 19.9014 5.94665 20.6199 5.94483 21.4149L5.88308 48.4987C5.88214 48.9112 5.93242 49.3223 6.03276 49.7224C7.90561 57.1908 14.5158 62.5032 22.2122 62.7254L24.0443 62.7782C30.7705 62.9724 36.365 57.6453 36.5001 50.9176L37.3619 8.0158Z" fill="url(#paint0_linear_350_1620)" stroke="#04273A" stroke-width="2"/>
<path d="M44.9757 15.426L45.3004 13.9733L43.8328 14.2218L8.66861 20.1762C7.70658 20.3391 7.00252 21.1724 7.00252 22.1481L7.00252 46.7744C7.00252 47.1006 7.03345 47.426 7.09492 47.7464C8.20705 53.5429 12.1052 58.4185 17.5148 60.779L18.9729 61.4153C26.3989 64.6558 34.9378 60.3216 36.7057 52.4145L44.9757 15.426Z" fill="url(#paint1_linear_350_1620)" stroke="#04273A" stroke-width="2"/>
<path d="M21.7087 32.9251L30.9467 47.0751L25.24 50.8007L20.1891 48.2228L30.3016 59.8298L28 61.9702L12.0445 61.9702C5.39249 51.7813 8.25977 38.129 18.4487 31.477L23.0233 28.4905L21.7087 32.9251Z" fill="#04273A"/>
<path d="M26.6241 31.5011C26.9847 31.7956 27.2688 32.1772 27.4478 32.6075C27.5709 32.9027 27.7824 33.1549 28.0504 33.3261L28.3834 33.5422C28.7647 33.3871 29.125 33.1877 29.4575 32.9477C30.0248 32.551 30.4963 32.0314 30.8415 31.4227C30.6371 31.3177 30.4535 31.172 30.3023 30.9946C30.1512 30.8173 30.0357 30.6121 29.9631 30.3921C29.9276 30.2741 29.8528 30.1702 29.7522 30.0991L29.4894 29.9236C28.6569 29.9933 27.8726 30.2933 27.2195 30.7917C26.9681 30.9733 26.7331 31.1766 26.5169 31.3996L26.6241 31.5011Z" fill="white"/>
<path d="M31.111 29.882C31.1359 29.9582 31.1773 30.0286 31.2321 30.0877C31.2868 30.1469 31.3534 30.1931 31.4266 30.2228L31.6132 30.3006C31.6936 30.2582 31.7702 30.2091 31.8422 30.1538C33.0834 29.2459 33.4346 28.2921 33.3238 28.1382C33.213 27.9842 32.197 28.0145 30.9534 28.9097C30.8674 28.9716 30.7549 29.0526 30.6359 29.1383C30.8533 29.343 31.0173 29.5997 31.111 29.882Z" fill="white"/>
<path d="M24.1697 34.8697C24.5022 35.3521 24.9233 35.7672 25.4123 36.0945C25.591 35.9867 25.7617 35.8778 25.9257 35.7597C26.0898 35.6416 26.2562 35.5218 26.4197 35.3728C26.8158 35.0401 27.1808 34.6725 27.5099 34.2748L27.4498 34.2415C26.9737 33.9577 26.6079 33.5269 26.4064 33.0126C26.3199 32.7795 26.1726 32.5749 25.9791 32.4189L25.6017 32.1303C25.1846 32.2202 24.7819 32.3728 24.4077 32.5827C24.2304 32.6844 24.0584 32.7954 23.8926 32.9151C23.7285 33.0332 23.5645 33.1513 23.4122 33.2957C23.5637 33.8651 23.8204 34.3985 24.1697 34.8697Z" fill="white"/>
<path d="M63.464 18.31V25.672C63.464 26.356 63.62 26.884 63.932 27.256C64.256 27.628 64.742 27.814 65.39 27.814C66.038 27.814 66.524 27.628 66.848 27.256C67.184 26.872 67.352 26.344 67.352 25.672V18.31H70.88V25.672C70.88 26.836 70.634 27.832 70.142 28.66C69.65 29.476 68.978 30.094 68.126 30.514C67.286 30.922 66.35 31.126 65.318 31.126C64.286 31.126 63.362 30.922 62.546 30.514C61.742 30.094 61.106 29.476 60.638 28.66C60.182 27.844 59.954 26.848 59.954 25.672V18.31H63.464ZM79.4285 20.812C80.5925 20.812 81.5165 21.202 82.2005 21.982C82.8845 22.75 83.2265 23.794 83.2265 25.114V31H79.6985V25.582C79.6985 25.006 79.5485 24.556 79.2485 24.232C78.9485 23.896 78.5465 23.728 78.0425 23.728C77.5145 23.728 77.1005 23.896 76.8005 24.232C76.5005 24.556 76.3505 25.006 76.3505 25.582V31H72.8225V20.902H76.3505V22.342C76.6625 21.886 77.0825 21.52 77.6105 21.244C78.1385 20.956 78.7445 20.812 79.4285 20.812ZM86.9443 19.966C86.3203 19.966 85.8163 19.798 85.4323 19.462C85.0603 19.114 84.8743 18.682 84.8743 18.166C84.8743 17.638 85.0603 17.2 85.4323 16.852C85.8163 16.504 86.3203 16.33 86.9443 16.33C87.5563 16.33 88.0483 16.504 88.4203 16.852C88.8043 17.2 88.9963 17.638 88.9963 18.166C88.9963 18.682 88.8043 19.114 88.4203 19.462C88.0483 19.798 87.5563 19.966 86.9443 19.966ZM88.6903 20.902V31H85.1623V20.902H88.6903ZM90.1234 25.942C90.1234 24.898 90.3394 23.986 90.7714 23.206C91.2034 22.426 91.8034 21.826 92.5714 21.406C93.3514 20.986 94.2394 20.776 95.2354 20.776C96.5194 20.776 97.5994 21.13 98.4754 21.838C99.3514 22.534 99.9154 23.512 100.167 24.772H96.4234C96.2074 24.112 95.7874 23.782 95.1634 23.782C94.7194 23.782 94.3654 23.968 94.1014 24.34C93.8494 24.7 93.7234 25.234 93.7234 25.942C93.7234 26.65 93.8494 27.19 94.1014 27.562C94.3654 27.934 94.7194 28.12 95.1634 28.12C95.7994 28.12 96.2194 27.79 96.4234 27.13H100.167C99.9154 28.378 99.3514 29.356 98.4754 30.064C97.5994 30.772 96.5194 31.126 95.2354 31.126C94.2394 31.126 93.3514 30.916 92.5714 30.496C91.8034 30.076 91.2034 29.476 90.7714 28.696C90.3394 27.916 90.1234 26.998 90.1234 25.942ZM106.331 31.126C105.323 31.126 104.417 30.916 103.613 30.496C102.821 30.076 102.197 29.476 101.741 28.696C101.285 27.916 101.057 26.998 101.057 25.942C101.057 24.898 101.285 23.986 101.741 23.206C102.209 22.426 102.839 21.826 103.631 21.406C104.435 20.986 105.341 20.776 106.349 20.776C107.357 20.776 108.257 20.986 109.049 21.406C109.853 21.826 110.483 22.426 110.939 23.206C111.407 23.986 111.641 24.898 111.641 25.942C111.641 26.986 111.407 27.904 110.939 28.696C110.483 29.476 109.853 30.076 109.049 30.496C108.245 30.916 107.339 31.126 106.331 31.126ZM106.331 28.066C106.823 28.066 107.231 27.886 107.555 27.526C107.891 27.154 108.059 26.626 108.059 25.942C108.059 25.258 107.891 24.736 107.555 24.376C107.231 24.016 106.829 23.836 106.349 23.836C105.869 23.836 105.467 24.016 105.143 24.376C104.819 24.736 104.657 25.258 104.657 25.942C104.657 26.638 104.813 27.166 105.125 27.526C105.437 27.886 105.839 28.066 106.331 28.066ZM116.604 22.684C117 22.108 117.48 21.652 118.044 21.316C118.608 20.98 119.214 20.812 119.862 20.812V24.574H118.872C118.104 24.574 117.534 24.724 117.162 25.024C116.79 25.324 116.604 25.846 116.604 26.59V31H113.076V20.902H116.604V22.684ZM127.733 20.812C128.897 20.812 129.821 21.202 130.505 21.982C131.189 22.75 131.531 23.794 131.531 25.114V31H128.003V25.582C128.003 25.006 127.853 24.556 127.553 24.232C127.253 23.896 126.851 23.728 126.347 23.728C125.819 23.728 125.405 23.896 125.105 24.232C124.805 24.556 124.655 25.006 124.655 25.582V31H121.127V20.902H124.655V22.342C124.967 21.886 125.387 21.52 125.915 21.244C126.443 20.956 127.049 20.812 127.733 20.812ZM70.034 41.54C70.034 42.308 69.854 43.01 69.494 43.646C69.146 44.27 68.612 44.774 67.892 45.158C67.184 45.53 66.314 45.716 65.282 45.716H63.536V50H60.008V37.31H65.282C66.302 37.31 67.166 37.49 67.874 37.85C68.594 38.21 69.134 38.708 69.494 39.344C69.854 39.98 70.034 40.712 70.034 41.54ZM64.94 42.908C65.936 42.908 66.434 42.452 66.434 41.54C66.434 40.616 65.936 40.154 64.94 40.154H63.536V42.908H64.94ZM76.1494 50.126C75.1414 50.126 74.2354 49.916 73.4314 49.496C72.6394 49.076 72.0154 48.476 71.5594 47.696C71.1034 46.916 70.8754 45.998 70.8754 44.942C70.8754 43.898 71.1034 42.986 71.5594 42.206C72.0274 41.426 72.6574 40.826 73.4494 40.406C74.2534 39.986 75.1594 39.776 76.1674 39.776C77.1754 39.776 78.0754 39.986 78.8674 40.406C79.6714 40.826 80.3014 41.426 80.7574 42.206C81.2254 42.986 81.4594 43.898 81.4594 44.942C81.4594 45.986 81.2254 46.904 80.7574 47.696C80.3014 48.476 79.6714 49.076 78.8674 49.496C78.0634 49.916 77.1574 50.126 76.1494 50.126ZM76.1494 47.066C76.6414 47.066 77.0494 46.886 77.3734 46.526C77.7094 46.154 77.8774 45.626 77.8774 44.942C77.8774 44.258 77.7094 43.736 77.3734 43.376C77.0494 43.016 76.6474 42.836 76.1674 42.836C75.6874 42.836 75.2854 43.016 74.9614 43.376C74.6374 43.736 74.4754 44.258 74.4754 44.942C74.4754 45.638 74.6314 46.166 74.9434 46.526C75.2554 46.886 75.6574 47.066 76.1494 47.066ZM87.1967 50.126C86.2847 50.126 85.4687 49.976 84.7487 49.676C84.0407 49.364 83.4767 48.944 83.0567 48.416C82.6487 47.876 82.4207 47.27 82.3727 46.598H85.7927C85.8407 46.922 85.9907 47.174 86.2427 47.354C86.4947 47.534 86.8067 47.624 87.1787 47.624C87.4667 47.624 87.6947 47.564 87.8627 47.444C88.0307 47.324 88.1147 47.168 88.1147 46.976C88.1147 46.724 87.9767 46.538 87.7007 46.418C87.4247 46.298 86.9687 46.166 86.3327 46.022C85.6127 45.878 85.0127 45.716 84.5327 45.536C84.0527 45.356 83.6327 45.062 83.2727 44.654C82.9247 44.246 82.7507 43.694 82.7507 42.998C82.7507 42.398 82.9127 41.858 83.2367 41.378C83.5607 40.886 84.0347 40.496 84.6587 40.208C85.2947 39.92 86.0567 39.776 86.9447 39.776C88.2647 39.776 89.3027 40.1 90.0587 40.748C90.8147 41.396 91.2527 42.248 91.3727 43.304H88.1867C88.1267 42.98 87.9827 42.734 87.7547 42.566C87.5387 42.386 87.2447 42.296 86.8727 42.296C86.5847 42.296 86.3627 42.35 86.2067 42.458C86.0627 42.566 85.9907 42.716 85.9907 42.908C85.9907 43.148 86.1287 43.334 86.4047 43.466C86.6807 43.586 87.1247 43.712 87.7367 43.844C88.4687 44 89.0747 44.174 89.5547 44.366C90.0467 44.558 90.4727 44.87 90.8327 45.302C91.2047 45.722 91.3907 46.298 91.3907 47.03C91.3907 47.618 91.2167 48.146 90.8687 48.614C90.5327 49.082 90.0467 49.454 89.4107 49.73C88.7867 49.994 88.0487 50.126 87.1967 50.126ZM99.0832 46.994V50H97.5532C94.9732 50 93.6832 48.722 93.6832 46.166V42.836H92.4412V39.902H93.6832V37.454H97.2292V39.902H99.0652V42.836H97.2292V46.22C97.2292 46.496 97.2892 46.694 97.4092 46.814C97.5412 46.934 97.7572 46.994 98.0572 46.994H99.0832Z" fill="white"/>
<path d="M102.411 50.144C101.787 50.144 101.283 49.976 100.899 49.64C100.527 49.292 100.341 48.854 100.341 48.326C100.341 47.798 100.527 47.36 100.899 47.012C101.283 46.664 101.787 46.49 102.411 46.49C103.023 46.49 103.515 46.664 103.887 47.012C104.271 47.36 104.463 47.798 104.463 48.326C104.463 48.842 104.271 49.274 103.887 49.622C103.515 49.97 103.023 50.144 102.411 50.144Z" fill="#FF8E27"/>
<defs>
<linearGradient id="paint0_linear_350_1620" x1="20.3395" y1="10.4341" x2="11.8302" y2="35.132" gradientUnits="userSpaceOnUse">
<stop stop-color="#FFE600"/>
<stop offset="1" stop-color="#FF8E27"/>
</linearGradient>
<linearGradient id="paint1_linear_350_1620" x1="-6.22619" y1="29.7359" x2="46.0752" y2="38.8679" gradientUnits="userSpaceOnUse">
<stop stop-color="#FF8E27"/>
<stop offset="1" stop-color="#FDBC11"/>
</linearGradient>
</defs>
</svg>
